<svg width="172" height="20" viewBox="0 0 172 20" fill="none" xmlns="http://www.w3.org/2000/svg">
<path fill-rule="evenodd" clip-rule="evenodd" d="M0 19.4227V1.84218H30.9432V0H38.2222V17.6385H6.97454V19.4082H0V19.4227ZM2.81302 4.84479H35.1482V14.7665H2.81302V4.84479Z" fill="#436AB1"/>
<path d="M49.8682 3.81372H55.7169C57.0063 3.81372 57.9274 4.13621 58.5721 4.73511C59.2169 5.38008 59.5392 6.25541 59.5392 7.40714C59.5392 8.60495 59.1708 9.52634 58.48 10.1713C57.7892 10.8163 56.73 11.1848 55.3024 11.1848H53.4142V15.5154H49.8682V3.81372ZM53.4142 8.78923H54.2892C54.98 8.78923 55.4405 8.65102 55.7169 8.42067C55.9932 8.19032 56.1313 7.86784 56.1313 7.49928C56.1313 7.13073 55.9932 6.80824 55.7629 6.57789C55.5327 6.30147 55.0721 6.20933 54.4274 6.20933H53.4142V8.78923Z" fill="black"/>
<path d="M61.4272 15.5154V3.81372H67.322C68.4273 3.81372 69.2562 3.90586 69.8089 4.09013C70.4075 4.27441 70.8681 4.64297 71.1904 5.14973C71.5589 5.6565 71.697 6.30147 71.697 7.03859C71.697 7.68356 71.5589 8.23639 71.2825 8.74316C71.0062 9.20385 70.6378 9.61848 70.1773 9.89489C69.8549 10.0792 69.4865 10.2174 68.9338 10.3556C69.3483 10.4938 69.6707 10.632 69.8549 10.7702C69.9931 10.8624 70.1773 11.0927 70.4075 11.3691C70.6378 11.6916 70.822 11.922 70.9141 12.1062L72.6181 15.5154H68.6575L66.7694 11.922C66.5391 11.4613 66.3088 11.1388 66.1246 11.0006C65.8483 10.8163 65.572 10.7241 65.2496 10.7241H64.9273V15.4693H61.4272V15.5154ZM64.9733 8.55888H66.447C66.5852 8.55888 66.9075 8.51281 67.3681 8.42067C67.5983 8.3746 67.7825 8.23639 67.9207 8.05211C68.0588 7.86784 68.151 7.63749 68.151 7.36107C68.151 6.99252 68.0128 6.7161 67.7825 6.48575C67.5523 6.30148 67.0917 6.16326 66.447 6.16326H64.8812V8.55888H64.9733Z" fill="black"/>
<path d="M73.0791 9.66442C73.0791 7.7295 73.5857 6.25528 74.6449 5.19568C75.7041 4.13609 77.1317 3.58325 78.9739 3.58325C80.862 3.58325 82.3357 4.09001 83.3489 5.14961C84.362 6.20921 84.8686 7.68343 84.8686 9.52621C84.8686 10.9083 84.6384 12.014 84.1778 12.8893C83.7173 13.7646 83.0726 14.4556 82.2436 14.9163C81.4147 15.4231 80.3554 15.6535 79.066 15.6535C77.7765 15.6535 76.7173 15.4231 75.8883 15.0085C75.0594 14.5939 74.3686 13.9028 73.8159 13.0275C73.2633 12.1522 73.0791 11.0465 73.0791 9.66442ZM76.6252 9.66442C76.6252 10.8622 76.8554 11.6915 77.2699 12.1982C77.6844 12.705 78.2831 12.9814 79.0199 12.9814C79.7568 12.9814 80.3554 12.7511 80.7699 12.2443C81.1844 11.7376 81.4147 10.8162 81.4147 9.52621C81.4147 8.42055 81.1844 7.63737 80.7699 7.1306C80.3554 6.62384 79.7568 6.34742 79.0199 6.34742C78.3291 6.34742 77.7304 6.62384 77.316 7.1306C76.8094 7.63737 76.6252 8.46662 76.6252 9.66442Z" fill="black"/>
<path d="M86.8027 3.81372H95.5067V6.34754H90.3488V8.3746H94.7699V10.7241H90.3488V15.5154H86.8027V3.81372Z" fill="black"/>
<path d="M97.4868 3.81372H102.737C103.75 3.81372 104.625 3.95193 105.224 4.22834C105.868 4.50476 106.375 4.91938 106.789 5.47222C107.204 6.02505 107.526 6.62396 107.711 7.36107C107.895 8.05211 107.987 8.83529 107.987 9.61847C107.987 10.8624 107.849 11.8298 107.572 12.5209C107.296 13.2119 106.928 13.8108 106.421 14.2715C105.914 14.7322 105.408 15.0547 104.855 15.1929C104.072 15.4232 103.382 15.5154 102.737 15.5154H97.4868V3.81372ZM100.987 6.43968V12.8433H101.862C102.599 12.8433 103.105 12.7512 103.428 12.613C103.75 12.4287 103.98 12.1523 104.164 11.7377C104.349 11.323 104.441 10.632 104.441 9.71062C104.441 8.46674 104.257 7.63749 103.842 7.1768C103.428 6.7161 102.783 6.48575 101.862 6.48575H100.987V6.43968Z" fill="black"/>
<path d="M109.967 3.81372H113.513V15.5154H109.967V3.81372Z" fill="black"/>
<path d="M115.401 11.6454L118.763 11.4151C118.855 11.9679 118.993 12.3825 119.224 12.705C119.592 13.1657 120.099 13.3961 120.79 13.3961C121.296 13.3961 121.665 13.2578 121.941 13.0275C122.217 12.7971 122.355 12.5207 122.355 12.1982C122.355 11.8758 122.217 11.6454 121.987 11.369C121.711 11.1386 121.112 10.9083 120.191 10.678C118.625 10.3094 117.52 9.8487 116.875 9.2498C116.23 8.6509 115.862 7.91378 115.862 6.99239C115.862 6.39349 116.046 5.84066 116.368 5.28782C116.691 4.73499 117.197 4.32036 117.888 4.04395C118.579 3.72146 119.5 3.58325 120.697 3.58325C122.171 3.58325 123.276 3.85967 124.013 4.4125C124.796 4.96534 125.257 5.84065 125.395 7.08453L122.079 7.26881C121.987 6.76205 121.803 6.34742 121.526 6.11707C121.25 5.88673 120.836 5.74852 120.375 5.74852C119.961 5.74852 119.638 5.84066 119.454 6.02494C119.27 6.20921 119.132 6.43956 119.132 6.66991C119.132 6.85418 119.224 7.03847 119.408 7.17667C119.592 7.31488 119.961 7.45309 120.605 7.5913C122.125 7.91378 123.23 8.28234 123.921 8.60482C124.566 8.97338 125.072 9.38801 125.395 9.89477C125.717 10.4015 125.855 11.0004 125.855 11.6454C125.855 12.3825 125.671 13.0736 125.257 13.7185C124.842 14.3635 124.29 14.8242 123.553 15.1467C122.816 15.4692 121.895 15.6535 120.79 15.6535C118.855 15.6535 117.52 15.2849 116.737 14.5017C115.908 13.7646 115.493 12.7971 115.401 11.6454Z" fill="black"/>
<path d="M127.513 3.81372H133.362C134.652 3.81372 135.573 4.13621 136.217 4.73511C136.862 5.38008 137.184 6.25541 137.184 7.40714C137.184 8.60495 136.816 9.52634 136.125 10.1713C135.434 10.8163 134.375 11.1848 132.948 11.1848H131.013V15.5154H127.467V3.81372H127.513ZM131.059 8.78923H131.934C132.625 8.78923 133.086 8.65102 133.362 8.42067C133.638 8.19032 133.777 7.86784 133.777 7.49928C133.777 7.13073 133.638 6.80824 133.408 6.57789C133.178 6.34754 132.717 6.20933 132.073 6.20933H131.059V8.78923Z" fill="black"/>
<path d="M139.072 3.81372H142.618V12.6591H148.099V15.5614H139.072V3.81372Z" fill="black"/>
<path d="M156.711 13.5805H152.704L152.152 15.5154H148.56L152.842 3.81372H156.665L160.948 15.5154H157.264L156.711 13.5805ZM155.974 11.0466L154.731 6.8543L153.487 11.0466H155.974Z" fill="black"/>
<path d="M159.566 3.81372H163.48L165.783 7.77569L168.086 3.81372H172L167.579 10.632V15.5154H164.033V10.632L159.566 3.81372Z" fill="black"/>
</svg>
