<svg width="19" height="19" viewBox="0 0 19 19" fill="none" xmlns="http://www.w3.org/2000/svg">
<path d="M8.26857 16.0093C9.98603 16.009 11.654 15.434 13.0069 14.376L17.2604 18.6296L18.6286 17.2614L14.3751 13.0078C15.4336 11.6548 16.0089 9.98647 16.0093 8.26857C16.0093 4.00052 12.5366 0.527832 8.26857 0.527832C4.00052 0.527832 0.527832 4.00052 0.527832 8.26857C0.527832 12.5366 4.00052 16.0093 8.26857 16.0093ZM8.26857 2.46302C11.4703 2.46302 14.0741 5.06681 14.0741 8.26857C14.0741 11.4703 11.4703 14.0741 8.26857 14.0741C5.06681 14.0741 2.46302 11.4703 2.46302 8.26857C2.46302 5.06681 5.06681 2.46302 8.26857 2.46302Z" fill="black"/>
</svg>
