<svg width="66" height="45" viewBox="0 0 66 45" fill="none" xmlns="http://www.w3.org/2000/svg">
<path d="M16.7828 30.0343C15.6802 29.1384 15.0358 28.0075 15.0788 26.5095C15.1217 25.0261 15.7375 23.8512 16.969 23.0875C18.3007 22.265 19.6754 21.5307 21.0358 20.7817C21.6659 20.4439 22.2243 20.6054 22.5251 21.1488C22.8401 21.7216 22.6539 22.3091 22.0095 22.6909C20.7637 23.4106 19.4893 24.0862 18.2434 24.8058C16.9117 25.5842 16.7828 27.3613 17.9857 28.2131C18.7446 28.7418 19.5036 28.639 20.2768 28.2131C23.2267 26.5535 26.1766 24.9086 29.1265 23.2637C30.1718 22.6762 30.7446 22.735 31.1026 23.4253C31.4463 24.0862 31.1742 24.5855 30.1575 25.1583C26.0334 27.4641 21.9093 29.7552 17.7852 32.061C16.8115 32.6044 16.3532 33.4416 16.5251 34.3081C16.8115 35.7033 18.1862 36.3495 19.4749 35.6446C21.852 34.3375 24.2148 33.0157 26.5776 31.6939C28.4248 30.6658 30.2578 29.6377 32.105 28.6097C32.2768 28.5215 32.4344 28.4187 32.6205 28.3453C33.1933 28.125 33.6659 28.2719 33.9666 28.8153C34.253 29.344 34.0955 29.814 33.6659 30.1811C33.5084 30.3133 33.3079 30.4161 33.1074 30.5189C30.1146 32.1932 27.1217 33.8675 24.1289 35.5271C23.3413 35.9677 22.8831 36.5698 22.9117 37.5098C22.9546 38.7875 24.2005 39.6834 25.389 39.2869C25.6611 39.1988 25.9189 39.0666 26.1623 38.9197C29.0978 37.2895 32.0191 35.6446 34.9547 34.0144C35.1265 33.9262 35.284 33.8087 35.4558 33.75C36.043 33.515 36.6157 33.7206 36.8449 34.264C37.1026 34.8515 36.9165 35.3362 36.401 35.6446C35.5418 36.1586 34.6539 36.6433 33.7661 37.1279C32.6635 37.7448 31.5465 38.3616 30.4439 38.9931C29.3126 39.6394 28.9403 40.7262 29.4702 41.7542C30.0143 42.8117 31.1599 43.1201 32.3055 42.4739C38.1623 39.1988 44.0334 35.9236 49.8902 32.6485C51.3365 31.8407 52.5394 30.7245 53.4845 29.344C54.4296 27.9634 55.3604 26.5682 56.3198 25.2023C56.5776 24.8352 56.5776 24.5561 56.3628 24.1596C53.1408 18.1234 49.9332 12.0578 46.7255 6.00685C46.0525 4.7438 46.1527 4.39131 47.3986 3.71573C49.4606 2.58485 51.5084 1.4246 53.5561 0.29373C54.5298 -0.249677 55.0024 -0.102811 55.5322 0.895884C58.9117 7.25522 62.2768 13.5999 65.642 19.9592C66.1862 20.9726 66.0573 21.4279 65.0692 21.986C63.1217 23.0728 61.1742 24.1596 59.2267 25.2464C58.8115 25.4667 58.4964 25.7604 58.2243 26.157C57.2792 27.5669 56.3198 28.9621 55.3604 30.3721C54.1289 32.1932 52.568 33.6325 50.6635 34.6899C44.864 37.921 39.0644 41.1668 33.2649 44.3978C30.673 45.8371 27.8091 44.5006 27.1933 41.5339C27.0644 40.9318 26.9069 40.9612 26.42 41.1668C23.9284 42.2683 21.2076 40.7262 20.8067 38.0091C20.7351 37.4951 20.6062 37.4951 20.1766 37.686C17.5704 38.8316 14.8783 37.407 14.42 34.5724C14.148 32.9129 14.7924 31.5617 16.1098 30.5483C16.3675 30.3867 16.6396 30.328 16.7828 30.0343ZM53.8854 2.62891C53.8138 2.65829 53.7279 2.70235 53.642 2.74641C52.1814 3.55417 50.7064 4.37663 49.2458 5.1844C48.8592 5.39001 49.0024 5.63968 49.1456 5.90404C52.1384 11.5437 55.1313 17.1834 58.1241 22.8231C58.3246 23.205 58.4964 23.2196 58.8401 23.0287C60.1862 22.2503 61.5465 21.4719 62.9212 20.7523C63.4511 20.4732 63.4511 20.2236 63.179 19.7536C62.1766 17.9177 61.2029 16.0672 60.2291 14.2167C58.2673 10.5303 56.3055 6.8293 54.3437 3.14295C54.2434 2.96671 54.2005 2.68766 53.8854 2.62891Z" fill="#436AB1"/>
<path d="M22.8545 4.11227C20.6349 4.1857 18.7304 4.93472 16.7543 5.1844C15.2936 5.37532 14.8068 6.09497 14.4917 7.47552C13.117 13.5264 11.6278 19.5627 10.1528 25.5842C10.0383 26.0689 10.1099 26.3479 10.4679 26.6563C11.6278 27.6403 12.759 28.6537 13.9046 29.6524C14.5633 30.2399 14.6779 30.8273 14.234 31.3561C13.8187 31.8701 13.1743 31.8554 12.5299 31.2973C11.2984 30.2252 10.0526 29.1384 8.8354 28.0516C8.49173 27.7431 8.10509 27.5375 7.64686 27.42C5.44161 26.8766 3.25068 26.3038 1.05975 25.7311C0.10032 25.4814 -0.157437 25.0702 0.0859999 24.0715C1.80438 16.9337 3.52275 9.8107 5.25545 2.68766C5.47025 1.82115 5.9428 1.55678 6.80199 1.77709C8.9786 2.32049 11.1552 2.84921 13.3175 3.43668C13.9619 3.61292 14.5347 3.51011 15.1361 3.37793C17.1552 2.93733 19.16 2.36455 21.2077 2.07082C23.1982 1.79177 25.0884 2.18831 26.9929 2.67297C31.8187 3.92134 36.6445 5.12565 41.4702 6.37402C43.3318 6.85868 44.5776 8.56233 44.5347 10.4716C44.4917 12.4249 43.16 14.0552 41.2554 14.4664C40.5108 14.6279 39.7948 14.4958 39.0645 14.3195C36.802 13.732 34.5395 13.1886 32.2769 12.5865C31.8473 12.469 31.6898 12.5865 31.518 12.9537C29.9571 16.3169 27.3366 18.1234 23.7423 18.4465C22.1242 18.5933 20.5776 18.094 19.0454 17.624C18.4297 17.4478 18.2722 16.9044 18.4154 16.3316C18.5586 15.7441 19.0168 15.5091 19.5753 15.6119C20.5347 15.7882 21.4798 16.0819 22.4392 16.2141C25.7185 16.6547 28.7829 14.6426 29.8426 11.4116C30.2865 10.0457 30.5299 9.91351 31.876 10.266C34.5395 10.9416 37.1886 11.6172 39.8521 12.2781C41.0693 12.5865 42.043 12.0137 42.3438 10.8535C42.6301 9.78133 42.0144 8.73857 40.8259 8.43015C35.4273 7.04961 30.0144 5.66906 24.6015 4.31788C23.9858 4.17101 23.3127 4.15633 22.8545 4.11227ZM7.58958 25.1877C8.00485 25.3052 8.04781 25.0261 8.13373 24.7177C9.63731 18.5199 11.1266 12.3368 12.6445 6.13903C12.759 5.69843 12.6874 5.47813 12.2006 5.37532C10.7399 5.03753 9.27932 4.67036 7.84734 4.25913C7.23158 4.08289 7.04543 4.25913 6.90223 4.86129C6.02872 8.56233 5.12657 12.2487 4.22442 15.935C3.63731 18.373 3.0502 20.811 2.46309 23.249C2.40581 23.5134 2.21965 23.8365 2.66357 23.9393C4.31034 24.3505 5.9428 24.7617 7.58958 25.1877Z" fill="#436AB1"/>
</svg>
