<svg width="73" height="52" viewBox="0 0 73 52" fill="none" xmlns="http://www.w3.org/2000/svg">
<mask id="path-1-inside-1_357_6129" fill="white">
<path d="M44.583 22.7208H47.2083C47.7976 22.7208 48.2745 22.2532 48.2745 21.6755C48.2745 21.0979 47.7976 20.6303 47.2083 20.6303H44.583C43.9938 20.6303 43.5169 21.0979 43.5169 21.6755C43.5169 22.2532 43.9938 22.7208 44.583 22.7208Z"/>
<path d="M57.5751 22.7208C58.1643 22.7208 58.6418 22.2532 58.6418 21.6755C58.6418 21.0979 58.1643 20.6303 57.5751 20.6303H50.3784C49.7898 20.6303 49.3123 21.0979 49.3123 21.6755C49.3123 22.2532 49.7898 22.7208 50.3784 22.7208H57.5751Z"/>
<path d="M44.583 27.6735H63.3838C63.9725 27.6735 64.45 27.2059 64.45 26.6282C64.45 26.0505 63.9725 25.583 63.3838 25.583H44.583C43.9938 25.583 43.5169 26.0505 43.5169 26.6282C43.5169 27.2059 43.9938 27.6735 44.583 27.6735Z"/>
<path d="M44.583 31.3711H63.3838C63.9725 31.3711 64.45 30.9035 64.45 30.3258C64.45 29.7482 63.9725 29.2806 63.3838 29.2806H44.583C43.9938 29.2806 43.5169 29.7482 43.5169 30.3258C43.5169 30.9035 43.9938 31.3711 44.583 31.3711Z"/>
<path d="M44.583 35.0687H63.3838C63.9725 35.0687 64.45 34.6011 64.45 34.0235C64.45 33.4458 63.9725 32.9782 63.3838 32.9782H44.583C43.9938 32.9782 43.5169 33.4458 43.5169 34.0235C43.5169 34.6011 43.9938 35.0687 44.583 35.0687Z"/>
<path d="M44.583 38.7222H53.653C54.2422 38.7222 54.7191 38.2541 54.7191 37.6764C54.7191 37.0993 54.2422 36.6311 53.653 36.6311H44.583C43.9938 36.6311 43.5169 37.0993 43.5169 37.6764C43.5169 38.2541 43.9938 38.7222 44.583 38.7222Z"/>
<path d="M54.4811 10.4704H49.8364C46.4751 10.4704 43.3234 11.3614 40.6096 12.913C38.3201 5.51828 31.3023 0.120361 23.0217 0.120361H18.3769C8.24419 0.120361 0.000244141 8.20281 0.000244141 18.1371C0.000244141 28.0719 8.24419 36.1543 18.3769 36.1543H21.5576V40.1773C21.5576 40.7331 21.8966 41.228 22.4219 41.4383C22.5931 41.507 22.7721 41.5402 22.9489 41.5402C23.3141 41.5402 23.6721 41.398 23.9394 41.1299L30.2495 34.8131C30.3863 34.6763 30.543 34.5673 30.7159 34.4883C31.2418 34.2485 31.7554 33.9848 32.2551 33.6976C32.9894 36.0622 34.2178 38.2764 35.8882 40.186C36.2712 40.6247 36.9443 40.6754 37.3912 40.2993C37.8387 39.9239 37.8904 39.2633 37.5068 38.8252C35.886 36.9717 34.7348 34.7946 34.1167 32.473C35.5347 31.4147 36.7987 30.1569 37.8576 28.7389C38.2056 28.2729 38.1022 27.6184 37.6269 27.2778C37.1516 26.9367 36.4846 27.0375 36.1367 27.504C34.5013 29.6942 32.3162 31.4539 29.8176 32.5924C29.4108 32.7777 29.0433 33.0327 28.7259 33.3504L23.6904 38.3919V35.9537C23.6904 34.9112 22.8255 34.0632 21.7627 34.0632H18.3769C9.41983 34.0632 2.13252 26.9187 2.13252 18.1371C2.13252 9.35542 9.41983 2.21086 18.3769 2.21086H23.0217C31.9788 2.21086 39.2661 9.35542 39.2661 18.1371C39.2661 19.9469 38.9549 21.7246 38.3412 23.4211C38.1444 23.965 38.4346 24.5622 38.9899 24.7557C39.5441 24.9486 40.1538 24.6642 40.3512 24.1197C41.046 22.1987 41.3984 20.1856 41.3984 18.1371C41.3984 17.0847 41.305 16.0536 41.1277 15.0503C43.6463 13.4754 46.634 12.5609 49.8364 12.5609H54.4811C63.4382 12.5609 70.7255 19.7055 70.7255 28.4871C70.7255 37.2693 63.4382 44.4133 54.4811 44.4133H51.0954C50.0326 44.4133 49.1677 45.2613 49.1677 46.3038V48.742L44.1321 43.7005C43.8147 43.3828 43.4479 43.1277 43.0404 42.9424C42.3367 42.6214 41.6491 42.2476 40.9976 41.8302C40.5046 41.5141 39.8442 41.6498 39.5218 42.1337C39.1994 42.6165 39.3384 43.2645 39.8314 43.5806C40.568 44.0525 41.3456 44.476 42.1422 44.8384C42.315 44.9174 42.4718 45.0269 42.6085 45.1632L48.9181 51.4805C49.186 51.7481 49.5434 51.8903 49.9092 51.8903C50.0859 51.8903 50.2649 51.857 50.4361 51.7884C50.9609 51.5786 51.3005 51.0832 51.3005 50.5273V46.5044H54.4806C64.6139 46.5044 72.8578 38.4219 72.8578 28.4871C72.8578 18.5529 64.6139 10.4704 54.4811 10.4704Z"/>
<path d="M20.0884 24.0505C19.1951 24.0505 18.472 24.7808 18.472 25.6565C18.472 26.5116 19.174 27.2625 20.0884 27.2625C21.0034 27.2625 21.7265 26.5116 21.7265 25.6565C21.7265 24.7808 20.9822 24.0505 20.0884 24.0505Z"/>
<path d="M22.5136 19.1496C23.0878 18.7115 24.896 17.2934 24.896 15.3332C24.896 13.3729 23.0878 11.8917 20.3652 11.8917C17.4931 11.8917 16.174 13.5604 16.174 14.6863C16.174 15.4999 16.8761 15.8754 17.4508 15.8754C18.5998 15.8754 18.1312 14.2694 20.3013 14.2694C21.3646 14.2694 22.2157 14.7283 22.2157 15.688C22.2157 16.8139 21.0244 17.4602 20.3224 18.0444C19.7054 18.5659 18.8972 19.421 18.8972 21.2145C18.8972 22.299 19.1951 22.6118 20.0673 22.6118C21.1095 22.6118 21.3224 22.1529 21.3224 21.7567C21.3224 20.6723 21.3435 20.0466 22.5136 19.1496Z"/>
</mask>
<path d="M44.583 22.7208H47.2083C47.7976 22.7208 48.2745 22.2532 48.2745 21.6755C48.2745 21.0979 47.7976 20.6303 47.2083 20.6303H44.583C43.9938 20.6303 43.5169 21.0979 43.5169 21.6755C43.5169 22.2532 43.9938 22.7208 44.583 22.7208Z" fill="#436AB1"/>
<path d="M57.5751 22.7208C58.1643 22.7208 58.6418 22.2532 58.6418 21.6755C58.6418 21.0979 58.1643 20.6303 57.5751 20.6303H50.3784C49.7898 20.6303 49.3123 21.0979 49.3123 21.6755C49.3123 22.2532 49.7898 22.7208 50.3784 22.7208H57.5751Z" fill="#436AB1"/>
<path d="M44.583 27.6735H63.3838C63.9725 27.6735 64.45 27.2059 64.45 26.6282C64.45 26.0505 63.9725 25.583 63.3838 25.583H44.583C43.9938 25.583 43.5169 26.0505 43.5169 26.6282C43.5169 27.2059 43.9938 27.6735 44.583 27.6735Z" fill="#436AB1"/>
<path d="M44.583 31.3711H63.3838C63.9725 31.3711 64.45 30.9035 64.45 30.3258C64.45 29.7482 63.9725 29.2806 63.3838 29.2806H44.583C43.9938 29.2806 43.5169 29.7482 43.5169 30.3258C43.5169 30.9035 43.9938 31.3711 44.583 31.3711Z" fill="#436AB1"/>
<path d="M44.583 35.0687H63.3838C63.9725 35.0687 64.45 34.6011 64.45 34.0235C64.45 33.4458 63.9725 32.9782 63.3838 32.9782H44.583C43.9938 32.9782 43.5169 33.4458 43.5169 34.0235C43.5169 34.6011 43.9938 35.0687 44.583 35.0687Z" fill="#436AB1"/>
<path d="M44.583 38.7222H53.653C54.2422 38.7222 54.7191 38.2541 54.7191 37.6764C54.7191 37.0993 54.2422 36.6311 53.653 36.6311H44.583C43.9938 36.6311 43.5169 37.0993 43.5169 37.6764C43.5169 38.2541 43.9938 38.7222 44.583 38.7222Z" fill="#436AB1"/>
<path d="M54.4811 10.4704H49.8364C46.4751 10.4704 43.3234 11.3614 40.6096 12.913C38.3201 5.51828 31.3023 0.120361 23.0217 0.120361H18.3769C8.24419 0.120361 0.000244141 8.20281 0.000244141 18.1371C0.000244141 28.0719 8.24419 36.1543 18.3769 36.1543H21.5576V40.1773C21.5576 40.7331 21.8966 41.228 22.4219 41.4383C22.5931 41.507 22.7721 41.5402 22.9489 41.5402C23.3141 41.5402 23.6721 41.398 23.9394 41.1299L30.2495 34.8131C30.3863 34.6763 30.543 34.5673 30.7159 34.4883C31.2418 34.2485 31.7554 33.9848 32.2551 33.6976C32.9894 36.0622 34.2178 38.2764 35.8882 40.186C36.2712 40.6247 36.9443 40.6754 37.3912 40.2993C37.8387 39.9239 37.8904 39.2633 37.5068 38.8252C35.886 36.9717 34.7348 34.7946 34.1167 32.473C35.5347 31.4147 36.7987 30.1569 37.8576 28.7389C38.2056 28.2729 38.1022 27.6184 37.6269 27.2778C37.1516 26.9367 36.4846 27.0375 36.1367 27.504C34.5013 29.6942 32.3162 31.4539 29.8176 32.5924C29.4108 32.7777 29.0433 33.0327 28.7259 33.3504L23.6904 38.3919V35.9537C23.6904 34.9112 22.8255 34.0632 21.7627 34.0632H18.3769C9.41983 34.0632 2.13252 26.9187 2.13252 18.1371C2.13252 9.35542 9.41983 2.21086 18.3769 2.21086H23.0217C31.9788 2.21086 39.2661 9.35542 39.2661 18.1371C39.2661 19.9469 38.9549 21.7246 38.3412 23.4211C38.1444 23.965 38.4346 24.5622 38.9899 24.7557C39.5441 24.9486 40.1538 24.6642 40.3512 24.1197C41.046 22.1987 41.3984 20.1856 41.3984 18.1371C41.3984 17.0847 41.305 16.0536 41.1277 15.0503C43.6463 13.4754 46.634 12.5609 49.8364 12.5609H54.4811C63.4382 12.5609 70.7255 19.7055 70.7255 28.4871C70.7255 37.2693 63.4382 44.4133 54.4811 44.4133H51.0954C50.0326 44.4133 49.1677 45.2613 49.1677 46.3038V48.742L44.1321 43.7005C43.8147 43.3828 43.4479 43.1277 43.0404 42.9424C42.3367 42.6214 41.6491 42.2476 40.9976 41.8302C40.5046 41.5141 39.8442 41.6498 39.5218 42.1337C39.1994 42.6165 39.3384 43.2645 39.8314 43.5806C40.568 44.0525 41.3456 44.476 42.1422 44.8384C42.315 44.9174 42.4718 45.0269 42.6085 45.1632L48.9181 51.4805C49.186 51.7481 49.5434 51.8903 49.9092 51.8903C50.0859 51.8903 50.2649 51.857 50.4361 51.7884C50.9609 51.5786 51.3005 51.0832 51.3005 50.5273V46.5044H54.4806C64.6139 46.5044 72.8578 38.4219 72.8578 28.4871C72.8578 18.5529 64.6139 10.4704 54.4811 10.4704Z" fill="#436AB1"/>
<path d="M20.0884 24.0505C19.1951 24.0505 18.472 24.7808 18.472 25.6565C18.472 26.5116 19.174 27.2625 20.0884 27.2625C21.0034 27.2625 21.7265 26.5116 21.7265 25.6565C21.7265 24.7808 20.9822 24.0505 20.0884 24.0505Z" fill="#436AB1"/>
<path d="M22.5136 19.1496C23.0878 18.7115 24.896 17.2934 24.896 15.3332C24.896 13.3729 23.0878 11.8917 20.3652 11.8917C17.4931 11.8917 16.174 13.5604 16.174 14.6863C16.174 15.4999 16.8761 15.8754 17.4508 15.8754C18.5998 15.8754 18.1312 14.2694 20.3013 14.2694C21.3646 14.2694 22.2157 14.7283 22.2157 15.688C22.2157 16.8139 21.0244 17.4602 20.3224 18.0444C19.7054 18.5659 18.8972 19.421 18.8972 21.2145C18.8972 22.299 19.1951 22.6118 20.0673 22.6118C21.1095 22.6118 21.3224 22.1529 21.3224 21.7567C21.3224 20.6723 21.3435 20.0466 22.5136 19.1496Z" fill="#436AB1"/>
<path d="M44.583 22.7208H47.2083C47.7976 22.7208 48.2745 22.2532 48.2745 21.6755C48.2745 21.0979 47.7976 20.6303 47.2083 20.6303H44.583C43.9938 20.6303 43.5169 21.0979 43.5169 21.6755C43.5169 22.2532 43.9938 22.7208 44.583 22.7208Z" stroke="white" stroke-width="0.6" mask="url(#path-1-inside-1_357_6129)"/>
<path d="M57.5751 22.7208C58.1643 22.7208 58.6418 22.2532 58.6418 21.6755C58.6418 21.0979 58.1643 20.6303 57.5751 20.6303H50.3784C49.7898 20.6303 49.3123 21.0979 49.3123 21.6755C49.3123 22.2532 49.7898 22.7208 50.3784 22.7208H57.5751Z" stroke="white" stroke-width="0.6" mask="url(#path-1-inside-1_357_6129)"/>
<path d="M44.583 27.6735H63.3838C63.9725 27.6735 64.45 27.2059 64.45 26.6282C64.45 26.0505 63.9725 25.583 63.3838 25.583H44.583C43.9938 25.583 43.5169 26.0505 43.5169 26.6282C43.5169 27.2059 43.9938 27.6735 44.583 27.6735Z" stroke="white" stroke-width="0.6" mask="url(#path-1-inside-1_357_6129)"/>
<path d="M44.583 31.3711H63.3838C63.9725 31.3711 64.45 30.9035 64.45 30.3258C64.45 29.7482 63.9725 29.2806 63.3838 29.2806H44.583C43.9938 29.2806 43.5169 29.7482 43.5169 30.3258C43.5169 30.9035 43.9938 31.3711 44.583 31.3711Z" stroke="white" stroke-width="0.6" mask="url(#path-1-inside-1_357_6129)"/>
<path d="M44.583 35.0687H63.3838C63.9725 35.0687 64.45 34.6011 64.45 34.0235C64.45 33.4458 63.9725 32.9782 63.3838 32.9782H44.583C43.9938 32.9782 43.5169 33.4458 43.5169 34.0235C43.5169 34.6011 43.9938 35.0687 44.583 35.0687Z" stroke="white" stroke-width="0.6" mask="url(#path-1-inside-1_357_6129)"/>
<path d="M44.583 38.7222H53.653C54.2422 38.7222 54.7191 38.2541 54.7191 37.6764C54.7191 37.0993 54.2422 36.6311 53.653 36.6311H44.583C43.9938 36.6311 43.5169 37.0993 43.5169 37.6764C43.5169 38.2541 43.9938 38.7222 44.583 38.7222Z" stroke="white" stroke-width="0.6" mask="url(#path-1-inside-1_357_6129)"/>
<path d="M54.4811 10.4704H49.8364C46.4751 10.4704 43.3234 11.3614 40.6096 12.913C38.3201 5.51828 31.3023 0.120361 23.0217 0.120361H18.3769C8.24419 0.120361 0.000244141 8.20281 0.000244141 18.1371C0.000244141 28.0719 8.24419 36.1543 18.3769 36.1543H21.5576V40.1773C21.5576 40.7331 21.8966 41.228 22.4219 41.4383C22.5931 41.507 22.7721 41.5402 22.9489 41.5402C23.3141 41.5402 23.6721 41.398 23.9394 41.1299L30.2495 34.8131C30.3863 34.6763 30.543 34.5673 30.7159 34.4883C31.2418 34.2485 31.7554 33.9848 32.2551 33.6976C32.9894 36.0622 34.2178 38.2764 35.8882 40.186C36.2712 40.6247 36.9443 40.6754 37.3912 40.2993C37.8387 39.9239 37.8904 39.2633 37.5068 38.8252C35.886 36.9717 34.7348 34.7946 34.1167 32.473C35.5347 31.4147 36.7987 30.1569 37.8576 28.7389C38.2056 28.2729 38.1022 27.6184 37.6269 27.2778C37.1516 26.9367 36.4846 27.0375 36.1367 27.504C34.5013 29.6942 32.3162 31.4539 29.8176 32.5924C29.4108 32.7777 29.0433 33.0327 28.7259 33.3504L23.6904 38.3919V35.9537C23.6904 34.9112 22.8255 34.0632 21.7627 34.0632H18.3769C9.41983 34.0632 2.13252 26.9187 2.13252 18.1371C2.13252 9.35542 9.41983 2.21086 18.3769 2.21086H23.0217C31.9788 2.21086 39.2661 9.35542 39.2661 18.1371C39.2661 19.9469 38.9549 21.7246 38.3412 23.4211C38.1444 23.965 38.4346 24.5622 38.9899 24.7557C39.5441 24.9486 40.1538 24.6642 40.3512 24.1197C41.046 22.1987 41.3984 20.1856 41.3984 18.1371C41.3984 17.0847 41.305 16.0536 41.1277 15.0503C43.6463 13.4754 46.634 12.5609 49.8364 12.5609H54.4811C63.4382 12.5609 70.7255 19.7055 70.7255 28.4871C70.7255 37.2693 63.4382 44.4133 54.4811 44.4133H51.0954C50.0326 44.4133 49.1677 45.2613 49.1677 46.3038V48.742L44.1321 43.7005C43.8147 43.3828 43.4479 43.1277 43.0404 42.9424C42.3367 42.6214 41.6491 42.2476 40.9976 41.8302C40.5046 41.5141 39.8442 41.6498 39.5218 42.1337C39.1994 42.6165 39.3384 43.2645 39.8314 43.5806C40.568 44.0525 41.3456 44.476 42.1422 44.8384C42.315 44.9174 42.4718 45.0269 42.6085 45.1632L48.9181 51.4805C49.186 51.7481 49.5434 51.8903 49.9092 51.8903C50.0859 51.8903 50.2649 51.857 50.4361 51.7884C50.9609 51.5786 51.3005 51.0832 51.3005 50.5273V46.5044H54.4806C64.6139 46.5044 72.8578 38.4219 72.8578 28.4871C72.8578 18.5529 64.6139 10.4704 54.4811 10.4704Z" stroke="white" stroke-width="0.6" mask="url(#path-1-inside-1_357_6129)"/>
<path d="M20.0884 24.0505C19.1951 24.0505 18.472 24.7808 18.472 25.6565C18.472 26.5116 19.174 27.2625 20.0884 27.2625C21.0034 27.2625 21.7265 26.5116 21.7265 25.6565C21.7265 24.7808 20.9822 24.0505 20.0884 24.0505Z" stroke="white" stroke-width="0.6" mask="url(#path-1-inside-1_357_6129)"/>
<path d="M22.5136 19.1496C23.0878 18.7115 24.896 17.2934 24.896 15.3332C24.896 13.3729 23.0878 11.8917 20.3652 11.8917C17.4931 11.8917 16.174 13.5604 16.174 14.6863C16.174 15.4999 16.8761 15.8754 17.4508 15.8754C18.5998 15.8754 18.1312 14.2694 20.3013 14.2694C21.3646 14.2694 22.2157 14.7283 22.2157 15.688C22.2157 16.8139 21.0244 17.4602 20.3224 18.0444C19.7054 18.5659 18.8972 19.421 18.8972 21.2145C18.8972 22.299 19.1951 22.6118 20.0673 22.6118C21.1095 22.6118 21.3224 22.1529 21.3224 21.7567C21.3224 20.6723 21.3435 20.0466 22.5136 19.1496Z" stroke="white" stroke-width="0.6" mask="url(#path-1-inside-1_357_6129)"/>
</svg>
