<svg width="55" height="55" viewBox="0 0 55 55" fill="none" xmlns="http://www.w3.org/2000/svg">
<path d="M16.853 0.214027C16.8209 0.267529 16.7246 0.288929 16.639 0.256828C16.5534 0.224728 16.425 0.235428 16.3501 0.278229C16.2752 0.33173 16.1789 0.374531 16.1361 0.385231C16.0826 0.395931 16.0291 0.417332 15.997 0.428036C15.9649 0.438736 15.9114 0.460136 15.8686 0.470837C15.6332 0.513638 14.5632 1.29477 14.3063 1.60508C14.0388 1.91539 13.5787 2.69652 13.5252 2.91053C13.5145 2.96403 13.4931 3.01753 13.4824 3.04963C13.4717 3.08173 13.4503 3.13523 13.4289 3.17804C13.4182 3.23154 13.3754 3.34924 13.3326 3.44555C13.2791 3.55255 13.2684 3.71305 13.3005 3.79866C13.3433 3.88426 13.3219 3.98056 13.2577 4.02337C13.1935 4.05547 13.1614 4.28017 13.1828 4.51558L13.2042 4.9436L11.6419 4.9329L10.0797 4.9115L9.79078 5.28601C9.52327 5.62843 9.51257 5.72473 9.53397 6.68776L9.55537 7.715L6.22755 7.7043C4.16238 7.7043 2.87833 7.7364 2.83553 7.8006C2.80343 7.86481 2.70713 7.88621 2.62152 7.85411C2.53592 7.822 2.40752 7.8327 2.33261 7.87551C2.25771 7.92901 2.15071 7.97181 2.08651 7.97181C1.9367 7.97181 1.40168 8.32492 1.03787 8.65664C0.770358 8.90274 0.28884 9.66247 0.267439 9.86578C0.267439 9.89788 0.235338 9.97278 0.192537 10.0156C0.139035 10.0584 0.106934 19.6352 0.106934 31.2987C0.106934 47.6382 0.139035 52.5282 0.235338 52.6245C0.310241 52.6994 0.320941 52.7529 0.27814 52.7529C0.224638 52.7529 0.246039 52.8278 0.320941 52.9135C0.395844 52.9991 0.427945 53.074 0.385144 53.074C0.27814 53.074 0.930863 53.93 1.19837 54.1333C1.64779 54.465 2.25771 54.786 2.35401 54.7325C2.40752 54.7004 2.47172 54.7218 2.51452 54.786C2.58942 54.9144 38.3287 54.9358 38.4571 54.8181C38.4999 54.7646 38.5748 54.7325 38.6069 54.7325C38.6497 54.7325 38.96 54.572 39.3024 54.3794C39.7626 54.1226 40.0194 53.8765 40.2655 53.4806C40.4581 53.181 40.6079 52.9028 40.6186 52.8707C40.6186 52.8385 40.6614 52.7208 40.7042 52.6245C40.7577 52.5175 40.7684 52.357 40.7363 52.2714C40.6935 52.1858 40.7149 52.0895 40.7791 52.0574C40.8433 52.0146 40.8754 50.8911 40.8754 49.0934L40.8647 46.1936L42.0417 45.0059C42.7801 44.2568 43.2295 43.7325 43.2295 43.5934C43.2295 43.3687 42.8336 42.8551 41.8705 41.8171C41.5602 41.4854 41.3034 41.1858 41.3034 41.143C41.3034 41.1109 41.496 40.7364 41.7314 40.3084C41.9561 39.8804 42.1488 39.4845 42.1595 39.431C42.1702 39.3668 42.2451 39.217 42.3307 39.0885C42.4163 38.9494 42.4591 38.8424 42.4163 38.8424C42.3842 38.8424 42.427 38.7247 42.5233 38.5749C42.6196 38.4251 42.6731 38.3074 42.6303 38.3074C42.5875 38.3074 42.6196 38.2325 42.6945 38.1469C42.7694 38.0506 42.8015 37.9543 42.7694 37.9115C42.7266 37.8794 42.748 37.7831 42.8122 37.6975C42.8764 37.6226 42.8978 37.5584 42.855 37.5584C42.8122 37.5584 42.8336 37.4835 42.9085 37.3979C42.9727 37.3123 43.0048 37.1946 42.9727 37.1411C42.855 36.9592 43.1439 36.8843 43.8287 36.9057C44.2032 36.9164 44.567 36.895 44.6419 36.8522C44.7168 36.8094 44.963 36.7773 45.2091 36.788C45.6692 36.8094 45.8511 36.7024 46.1507 36.2529C46.3005 36.0068 46.3326 35.6858 46.3326 34.145C46.3326 33.0321 46.2898 32.3045 46.2256 32.2617C46.1614 32.2189 46.14 32.1547 46.1721 32.1012C46.2684 31.9407 45.605 31.5448 45.284 31.5769C45.1235 31.5983 44.9309 31.5769 44.8559 31.5234C44.781 31.4806 44.4279 31.4485 44.0534 31.4592C43.6896 31.4699 43.3579 31.4699 43.3151 31.4592C43.2616 31.4378 43.1653 31.4271 43.1011 31.4164C43.0262 31.4164 42.962 31.3308 42.9513 31.2452C42.9406 31.1596 42.9299 31.0526 42.9085 30.9991C42.8978 30.9563 42.8657 30.8706 42.855 30.8171C42.8443 30.7529 42.8122 30.6887 42.8015 30.6566C42.7908 30.6245 42.7587 30.5496 42.748 30.4961C42.7373 30.4319 42.7052 30.3677 42.6945 30.3356C42.6838 30.3035 42.6517 30.2286 42.641 30.1751C42.6303 30.1109 42.5982 30.0467 42.5875 30.0146C42.5768 29.9825 42.5554 29.929 42.5447 29.8755C42.534 29.8327 42.4377 29.6401 42.3414 29.4582C42.2344 29.2656 42.1595 29.0837 42.1595 29.0516C42.1595 29.0195 42.0845 28.8483 41.9882 28.6664C41.9026 28.4845 41.8063 28.2491 41.7849 28.142C41.7635 28.0243 43.9143 25.2529 47.8521 20.3201C54.3365 12.1985 54.604 11.8561 54.6361 11.5885C54.6575 11.5029 54.711 11.3745 54.7752 11.3103C54.9036 11.1819 54.9357 9.81227 54.818 9.69457C54.7645 9.65177 54.7324 9.57687 54.7324 9.54477C54.7217 9.50196 54.6682 9.36286 54.5933 9.24516C54.5291 9.11675 54.497 8.98835 54.5291 8.95625C54.5612 8.92414 54.2616 8.56033 53.855 8.15372C53.1487 7.43679 51.8647 6.57006 51.6828 6.68776C51.6293 6.71986 51.5651 6.69846 51.5223 6.63426C51.4367 6.49516 50.2168 6.49516 50.1312 6.63426C50.0884 6.69846 50.0242 6.71986 49.9707 6.68776C49.9172 6.65566 49.7353 6.70916 49.5748 6.81617C49.4143 6.92317 49.2538 6.99807 49.2217 6.97667C49.0184 6.89107 47.82 8.26072 44.6098 12.2627C42.5982 14.7559 40.9289 16.7889 40.9075 16.7568C40.8861 16.7354 40.8647 15.3658 40.8754 13.7179C40.8754 11.9631 40.8433 10.6897 40.7791 10.6576C40.7256 10.6255 40.7042 10.4971 40.7363 10.3794C40.7684 10.2617 40.7363 10.1012 40.6721 10.0263C40.6079 9.94068 40.5865 9.85508 40.6186 9.82298C40.7363 9.70527 39.9445 8.72084 39.4309 8.32492C39.1419 8.11092 38.8851 7.95041 38.853 7.97181C38.8316 8.00391 38.746 7.97181 38.6604 7.90761C38.5855 7.8434 38.425 7.8113 38.3073 7.8434C38.1896 7.87551 38.0612 7.85411 38.0291 7.8006C37.997 7.7364 36.5952 7.7043 34.6478 7.7043L31.32 7.715L31.3414 6.65566C31.3628 5.63913 31.3521 5.59632 31.0739 5.30741L30.7742 5.0185L29.2227 5.0399L27.6711 5.0506L27.7032 4.46208C27.7139 4.14107 27.6818 3.84146 27.6176 3.80936C27.5534 3.76656 27.532 3.67025 27.5748 3.58465C27.6069 3.48835 27.5748 3.34924 27.4999 3.26364C27.425 3.17804 27.4036 3.10313 27.4464 3.10313C27.4892 3.10313 27.4678 3.02823 27.3929 2.94263C27.318 2.85702 27.2859 2.78212 27.3287 2.78212C27.4357 2.78212 26.8472 1.90469 26.4406 1.46597C26.1089 1.11286 25.2528 0.524338 25.0174 0.470837C24.9639 0.460136 24.9104 0.438736 24.8783 0.428036C24.8462 0.417332 24.7927 0.395931 24.7499 0.385231C24.6964 0.374531 24.6001 0.33173 24.5359 0.288929C24.461 0.235428 24.354 0.224728 24.3005 0.267529C24.247 0.299629 24.1721 0.278229 24.1293 0.214027C24.0437 0.0749207 16.9493 0.0642204 16.853 0.214027ZM23.6906 1.88329C23.7869 1.92609 23.9046 1.92609 23.9367 1.88329C23.9688 1.85118 24.0651 1.87259 24.1507 1.93679C24.2256 2.00099 24.2898 2.02239 24.2898 1.99029C24.2898 1.94749 24.5038 2.06519 24.7606 2.2471C25.2528 2.57881 25.6702 3.08173 25.7344 3.40274C25.7558 3.49905 25.7772 3.60605 25.7879 3.63815C25.7986 3.67025 25.82 3.73446 25.8414 3.79866C25.8521 3.85216 25.8735 3.93776 25.8842 3.98056C25.9056 4.03407 25.9163 4.25877 25.9163 4.49418L25.927 4.9222H20.3842H14.8414L14.8521 4.38718C14.8521 4.09827 14.8628 3.83076 14.8628 3.79866C14.8735 3.76656 14.8628 3.73446 14.8628 3.71305C14.8521 3.70235 14.9377 3.49905 15.0661 3.25294C15.2801 2.83562 16.0398 2.04379 16.2645 2.02239C16.3822 2.00099 16.532 1.96889 16.6711 1.92609C16.7139 1.91539 16.8209 1.90469 16.9279 1.91539C17.0242 1.92609 17.1205 1.89399 17.1526 1.85118C17.2169 1.75488 23.4231 1.77628 23.6906 1.88329ZM29.6507 8.93484V11.1284H20.4377H11.2246V8.93484C11.2246 7.7257 11.2353 6.73056 11.2353 6.70916C11.2353 6.69846 15.3764 6.69846 20.4377 6.70916L29.6507 6.74126V8.93484ZM51.0194 8.27142C51.0836 8.32492 51.1906 8.33562 51.2441 8.30352C51.3511 8.22862 52.4532 9.02045 52.8384 9.43776C52.9775 9.58757 53.1059 9.80157 53.1273 9.90858C53.1487 10.0263 53.1701 10.1226 53.1808 10.1333C53.2022 10.1761 53.2022 10.9037 53.1808 10.9893C53.1701 11.0428 53.1594 11.107 53.1594 11.1391C53.1808 11.2782 51.2334 13.5895 51.1157 13.5574C50.9338 13.5253 47.8307 11.0321 47.8307 10.9251C47.8307 10.8716 48.2373 10.3152 48.7402 9.69457C49.6069 8.62453 50.0884 8.21792 50.3666 8.31422C50.4308 8.33562 50.5165 8.31422 50.5486 8.25002C50.6235 8.14302 50.8054 8.15372 51.0194 8.27142ZM9.53397 10.8288C9.52327 12.2306 9.54467 12.3162 10.0797 12.6586C10.3472 12.8298 11.0641 12.8405 20.4805 12.8405C27.211 12.8405 30.6137 12.8084 30.6565 12.7335C30.6993 12.6693 30.7635 12.6479 30.817 12.68C30.8705 12.7121 31.0096 12.5944 31.1381 12.4125C31.3414 12.1236 31.3628 11.9631 31.3414 10.8074L31.3307 9.51266H34.5301C36.2956 9.51266 37.8151 9.54477 37.9221 9.58757C38.0184 9.63037 38.1361 9.63037 38.1682 9.59827C38.2538 9.50196 38.8209 9.91928 38.9493 10.1654C39.0242 10.3045 39.0563 11.9952 39.0563 14.8201V19.2607L37.6011 21.0798C36.7986 22.0749 36.1137 22.8989 36.0709 22.8989C36.0281 22.8989 35.9425 22.8454 35.8676 22.7705C35.7927 22.6955 35.7392 22.6741 35.7392 22.7169C35.7392 22.7598 35.6001 22.7276 35.4182 22.6313C35.247 22.5457 35.0758 22.4708 35.0437 22.4815C35.0009 22.4815 34.8618 22.4066 34.712 22.3103C34.5622 22.214 34.4124 22.1605 34.3803 22.1926C34.3375 22.2247 34.2519 22.2033 34.1663 22.1391C34.0914 22.0749 34.0272 22.0535 34.0272 22.0963C34.0272 22.1391 33.9523 22.1177 33.8666 22.0428C33.7703 21.9679 33.674 21.9358 33.6312 21.9679C33.4814 22.1284 33.2032 21.8288 33.246 21.572C33.2781 21.4222 33.2674 21.2082 33.2246 21.1119C33.1818 21.0049 33.1604 20.6197 33.1711 20.2452C33.1818 19.8492 33.1283 19.5068 33.0534 19.4105C32.9892 19.3249 32.9678 19.2607 33.0213 19.2607C33.0641 19.2607 32.9678 19.1109 32.7966 18.9397L32.4863 18.6187H30.496H28.5058L28.1954 18.9397C28.0242 19.1109 27.9279 19.2607 27.9707 19.2607C28.0242 19.2607 28.0028 19.3249 27.9279 19.4105C27.853 19.5068 27.8209 19.8278 27.8316 20.2024C27.8423 20.5448 27.8209 20.8872 27.7781 20.9621C27.7353 21.0263 27.7139 21.2403 27.7246 21.4329C27.7674 21.8395 27.6604 22.0535 27.4571 21.9786C27.3715 21.9465 27.2752 21.9786 27.2324 22.0321C27.2003 22.0963 27.1147 22.1284 27.0612 22.0856C27.0077 22.0535 26.89 22.0856 26.8044 22.1498C26.7188 22.2247 26.6439 22.2461 26.6439 22.2033C26.6439 22.1605 26.569 22.1819 26.4834 22.2568C26.3978 22.3317 26.3229 22.3531 26.3229 22.3103C26.3229 22.2675 26.2587 22.2782 26.1838 22.3424C26.1196 22.4066 26.0233 22.4601 25.9698 22.4601C25.927 22.4601 25.7451 22.5457 25.5739 22.6313C25.4026 22.7169 25.2314 22.7919 25.1993 22.7919C25.1672 22.7812 24.7713 22.9738 24.3326 23.2199L23.5301 23.6586L22.5028 22.7705C21.9464 22.2782 21.4542 21.8823 21.4114 21.8716C21.3793 21.8716 21.2723 21.8288 21.1653 21.786C21.0583 21.7325 20.8443 21.8074 20.5768 21.9679C19.9776 22.3531 17.6556 24.7714 17.6556 25.0068C17.6556 25.2315 18.1157 25.8201 18.961 26.7082C19.2499 27.0078 19.5067 27.3502 19.5174 27.4572C19.5388 27.5642 19.389 27.9173 19.1964 28.217C18.9931 28.5273 18.8647 28.7841 18.8861 28.7841C18.9182 28.7841 18.8433 28.9874 18.7149 29.2335C18.5865 29.4903 18.5009 29.6936 18.5223 29.7043C18.5437 29.7043 18.5009 29.7899 18.4153 29.8862C18.3404 29.9932 18.3083 30.0681 18.3511 30.0681C18.3939 30.0681 18.3725 30.143 18.2976 30.2286C18.2227 30.3142 18.2013 30.3891 18.2441 30.3891C18.2869 30.3891 18.2655 30.464 18.1906 30.5496C18.1157 30.6352 18.0943 30.7101 18.1371 30.7101C18.1799 30.7101 18.1585 30.785 18.0836 30.8706C18.0087 30.967 17.9766 31.0633 18.0087 31.1061C18.0515 31.1382 18.0301 31.2345 17.9766 31.3094C17.9124 31.3736 17.8803 31.502 17.891 31.5769C17.9124 31.6732 17.7733 31.7053 17.3667 31.6839C17.0563 31.6732 16.746 31.6946 16.6711 31.7374C16.6069 31.7802 16.2859 31.8016 15.9756 31.7909C15.4941 31.7695 15.3336 31.8123 15.0233 32.0477C14.82 32.1975 14.6809 32.3687 14.713 32.4222C14.7451 32.4757 14.7237 32.5399 14.6595 32.5827C14.5953 32.6255 14.5525 33.3317 14.5525 34.4125C14.5525 36.1138 14.5632 36.1887 14.8307 36.6061C15.0554 36.9699 15.1517 37.0341 15.3657 36.9913C15.5048 36.9699 15.6546 36.9913 15.6867 37.0448C15.7188 37.0983 16.0719 37.1304 16.4571 37.1304C16.853 37.1197 17.249 37.1411 17.3453 37.1839C17.4523 37.216 17.6128 37.2374 17.7198 37.216C17.8268 37.1946 17.9231 37.2374 17.9231 37.3123C17.9231 37.3765 17.9552 37.4621 17.998 37.5049C18.0408 37.5477 18.0408 37.644 18.0194 37.7189C17.9873 37.7938 18.0194 37.8901 18.0729 37.9329C18.1371 37.965 18.1692 38.0399 18.1371 38.0934C18.105 38.1469 18.1585 38.3181 18.2548 38.4679C18.3511 38.6177 18.3939 38.7354 18.3618 38.7354C18.319 38.7354 18.319 38.7996 18.3725 38.8638C18.4153 38.9387 18.4581 39.0243 18.4581 39.0564C18.4688 39.0885 18.5544 39.2705 18.6507 39.4631C18.7577 39.645 18.8112 39.8055 18.7898 39.8055C18.7577 39.8055 18.9075 40.0944 19.1108 40.4475C19.3141 40.8006 19.5067 41.1858 19.5281 41.2821C19.5495 41.4105 19.2285 41.8385 18.6614 42.4806C18.1585 43.0263 17.784 43.4971 17.8161 43.5292C17.8482 43.5613 17.8161 43.6469 17.7519 43.7218C17.677 43.8074 17.677 43.8716 17.7626 43.9251C17.8268 43.9572 17.8482 44.0321 17.8161 44.0749C17.7947 44.1284 18.4367 44.824 19.2606 45.6265C20.2986 46.643 20.8229 47.0817 20.9941 47.0817C21.1546 47.0817 21.6575 46.7286 22.3637 46.1187C22.9844 45.5944 23.5194 45.1557 23.5515 45.1557C23.5836 45.1557 23.8832 45.3162 24.2149 45.5195C24.5466 45.7228 24.8248 45.8726 24.8248 45.8405C24.8248 45.8191 25.0067 45.8833 25.2314 46.001C25.4454 46.108 25.6809 46.215 25.7344 46.2257C25.7986 46.2364 25.9056 46.2899 25.9805 46.3541C26.0447 46.4183 26.1089 46.429 26.1089 46.3862C26.1089 46.3434 26.1838 46.3648 26.2694 46.4397C26.355 46.5146 26.4299 46.536 26.4299 46.4932C26.4299 46.4504 26.5048 46.4718 26.5904 46.5467C26.676 46.6216 26.7509 46.643 26.7509 46.6002C26.7509 46.5574 26.8258 46.5788 26.9114 46.6537C26.997 46.7179 27.1147 46.75 27.1682 46.7179C27.2217 46.6751 27.2966 46.6965 27.3394 46.7607C27.3822 46.8249 27.4464 46.8463 27.4999 46.8142C27.6497 46.7179 27.7567 46.9961 27.7246 47.3706C27.7139 47.5633 27.7353 47.7773 27.7781 47.8415C27.8209 47.9164 27.8423 48.2695 27.8316 48.644C27.8209 49.0292 27.853 49.3395 27.9279 49.3823C27.9814 49.4144 28.0135 49.4893 27.9814 49.5428C27.9493 49.5963 28.0884 49.7568 28.281 49.9066C28.6342 50.1849 28.677 50.1849 30.496 50.1849C32.3151 50.1849 32.3579 50.1849 32.711 49.9066C32.9036 49.7568 33.0427 49.5963 33.0106 49.5428C32.9785 49.4893 33.0106 49.4144 33.0641 49.3823C33.139 49.3395 33.1711 49.0078 33.1604 48.5905C33.1497 48.1839 33.1711 47.8094 33.2139 47.7345C33.2567 47.6703 33.2781 47.4777 33.2674 47.3171C33.2246 46.9961 33.353 46.7286 33.4921 46.8142C33.5456 46.8463 33.6098 46.8249 33.6526 46.7714C33.6847 46.7072 33.781 46.6858 33.8559 46.7179C33.9416 46.75 34.0379 46.7179 34.0807 46.6644C34.1128 46.6002 34.1877 46.5681 34.2412 46.6002C34.2947 46.6323 34.4659 46.5788 34.6157 46.4825C34.7655 46.3862 34.8832 46.3434 34.8832 46.3755C34.8832 46.4183 34.9474 46.4183 35.0223 46.3648C35.0865 46.322 35.1721 46.2792 35.2042 46.2792C35.2363 46.2685 35.4182 46.1829 35.6001 46.0866C35.7927 45.9796 35.9639 45.9154 35.9746 45.9261C35.996 45.9368 36.3384 45.7656 36.7344 45.5516L37.462 45.145L38.0719 45.6693C39.1633 46.6109 39.067 46.2471 39.067 49.5321C39.067 52.0574 39.0456 52.464 38.8851 52.6994C38.7888 52.8492 38.6176 53.0205 38.5106 53.074C38.2538 53.2238 2.62152 53.2238 2.36472 53.074C2.25771 53.0205 2.08651 52.8599 1.9902 52.7101C1.8297 52.464 1.819 50.752 1.819 31.4057C1.819 12.0594 1.8297 10.3473 1.9902 10.1012C2.20421 9.79087 2.54662 9.57687 2.80343 9.60897C2.89973 9.63037 2.99604 9.59827 3.02814 9.55547C3.06024 9.51266 4.53689 9.48056 6.31316 9.49126L9.54467 9.51266L9.53397 10.8288ZM48.6653 13.6858C49.6069 14.4562 50.1419 14.9592 50.0884 15.0234C49.7353 15.4942 39.0991 28.7734 38.9493 28.9232C38.7781 29.1051 38.6925 29.0516 37.0982 27.7675C36.1779 27.0292 35.4182 26.3979 35.4182 26.3658C35.4182 26.3016 46.1293 12.9261 46.5252 12.4981C46.8355 12.1557 46.6215 12.038 48.6653 13.6858ZM31.3093 20.5341C31.32 20.5983 31.3307 20.6839 31.3521 20.7267C31.3628 20.7802 31.3628 21.1119 31.3521 21.4757C31.3414 21.8502 31.3735 22.2033 31.4163 22.2782C31.4698 22.3531 31.4912 22.5457 31.4698 22.6955C31.4484 22.9203 31.534 23.0487 31.8229 23.2734C32.0262 23.4339 32.2509 23.5302 32.3044 23.4981C32.3579 23.4553 32.4435 23.4874 32.4756 23.5516C32.5184 23.6051 32.6147 23.6372 32.7003 23.6051C32.7752 23.573 32.8715 23.5944 32.9143 23.6586C32.9464 23.7121 33.0534 23.7549 33.1497 23.7442C33.2567 23.7335 33.3637 23.7335 33.4172 23.7442C33.46 23.7442 33.5242 23.7549 33.5777 23.7656C33.6205 23.7656 33.7168 23.8191 33.7917 23.8833C33.8559 23.9475 33.9202 23.9582 33.9202 23.9154C33.9202 23.8726 33.9951 23.894 34.0807 23.9689C34.1663 24.0438 34.2412 24.0759 34.2412 24.0331C34.2412 23.9903 34.391 24.0438 34.5729 24.1294L34.8939 24.3006L34.605 24.6965C34.4445 24.9105 34.1342 25.3064 33.9202 25.574C33.4707 26.1304 33.139 26.644 33.2246 26.644C33.2567 26.644 33.2032 26.7938 33.1176 26.9757C32.9785 27.2432 32.9143 27.2753 32.7859 27.1683C32.7003 27.1041 32.604 27.072 32.5612 27.1041C32.5291 27.1469 32.4328 27.1255 32.3472 27.0506C32.2723 26.9864 32.176 26.965 32.1332 26.9971C32.1011 27.0399 32.0048 27.0185 31.9192 26.9543C31.8443 26.8901 31.6838 26.858 31.5661 26.8901C31.4484 26.9222 31.32 26.9008 31.2879 26.8473C31.213 26.7189 29.5651 26.7189 29.4795 26.858C29.4474 26.9115 29.3511 26.9329 29.2655 26.8901C29.1799 26.858 29.0194 26.8687 28.9231 26.9115C28.8161 26.965 28.6877 27.0078 28.6235 27.0185C28.57 27.0292 28.4844 27.0506 28.4416 27.072C28.3881 27.0827 28.3132 27.1148 28.2489 27.1255C28.1954 27.1362 28.1205 27.1683 28.0884 27.179C28.0563 27.1897 27.9921 27.2218 27.9279 27.2325C27.8744 27.2432 27.7995 27.2753 27.7674 27.286C27.7353 27.2967 27.6818 27.3181 27.639 27.3288C27.5855 27.3395 27.1682 27.5535 26.6974 27.8103C25.4989 28.4631 24.2791 29.7043 23.6478 30.9242C23.391 31.4271 23.1984 31.8337 23.2305 31.8444C23.2519 31.8444 23.2091 31.93 23.1235 32.0263C23.0486 32.1333 23.0165 32.2082 23.0593 32.2082C23.1021 32.2082 23.0807 32.2831 23.0058 32.3687C22.9309 32.465 22.8988 32.5613 22.9309 32.6041C22.9737 32.6362 22.9523 32.7325 22.8881 32.8074C22.8239 32.893 22.7918 33.0214 22.8239 33.1177C22.8667 33.2033 22.8453 33.2996 22.7918 33.3317C22.7276 33.3745 22.6847 33.8989 22.6847 34.5088C22.6847 35.1187 22.7276 35.643 22.7918 35.6858C22.8453 35.7179 22.8667 35.8142 22.8239 35.8998C22.7918 35.9961 22.8239 36.1245 22.8881 36.2101C22.9523 36.285 22.9737 36.3813 22.9416 36.4134C22.9095 36.4456 22.9202 36.5419 22.963 36.6168C23.0165 36.6917 23.0593 36.788 23.07 36.8308C23.0807 36.8843 23.1021 36.9378 23.1128 36.9699C23.1235 37.002 23.1449 37.0555 23.1556 37.0983C23.1663 37.1518 23.2626 37.3444 23.3589 37.5263C23.4659 37.7189 23.5194 37.8794 23.4873 37.8794C23.4124 37.8794 24.4182 39.3454 24.7499 39.7092C25.21 40.2228 26.2266 40.9825 26.8686 41.3035C27.211 41.4854 27.5213 41.6245 27.5534 41.6138C27.5962 41.6138 27.7353 41.6887 27.8851 41.785C28.0349 41.8813 28.1847 41.9349 28.2168 41.9027C28.2596 41.8706 28.3453 41.892 28.4309 41.9563C28.5058 42.0205 28.57 42.0419 28.57 41.9991C28.57 41.9563 28.6449 41.9777 28.7305 42.0526C28.8161 42.1275 28.9873 42.1596 29.105 42.1275C29.2227 42.0954 29.3511 42.1168 29.3832 42.1703C29.4581 42.2987 31.32 42.2987 31.4056 42.1596C31.4377 42.1061 31.534 42.0847 31.6196 42.1275C31.7052 42.1596 31.8657 42.1489 31.9727 42.1061C32.069 42.0526 32.2081 42.0098 32.2616 41.9991C32.3258 41.9884 32.4007 41.967 32.4542 41.9456C32.497 41.9349 32.5826 41.9027 32.6361 41.892C32.7003 41.8813 32.7645 41.8492 32.7966 41.8385C32.8287 41.8278 32.9036 41.7957 32.9571 41.785C33.0213 41.7743 33.0855 41.7422 33.1176 41.7315C33.1497 41.7208 33.2139 41.6994 33.2567 41.6887C33.2995 41.6887 33.7275 41.4533 34.1984 41.1858C35.2577 40.5652 35.9318 39.966 36.531 39.1206C36.9698 38.5107 37.569 37.4193 37.5476 37.2909C37.5476 37.2481 37.6225 37.109 37.7188 36.9592C37.8151 36.8094 37.8686 36.6596 37.8365 36.6275C37.8044 36.5847 37.8258 36.4991 37.8793 36.4241C37.9435 36.3599 37.9863 36.2529 37.9756 36.2101C37.9649 36.1566 37.9863 36.0282 38.0398 35.9212C38.0826 35.8249 38.0933 35.643 38.0612 35.5253C38.0291 35.4076 38.0505 35.2792 38.104 35.2471C38.2217 35.1829 38.2324 34.1022 38.1254 33.9845C38.0826 33.9417 38.0612 33.7277 38.0826 33.5029C38.0933 33.2675 38.0505 33.0535 37.997 33.0107C37.9328 32.9786 37.9007 32.893 37.9435 32.8395C37.9756 32.786 37.9649 32.679 37.9114 32.6041C37.7295 32.3687 37.8258 32.2403 38.639 31.5876C39.0884 31.2345 39.6663 30.678 39.9231 30.3463C40.1799 30.0146 40.426 29.7471 40.4688 29.7471C40.5116 29.7471 40.6935 30.036 40.8754 30.3891C41.0573 30.7422 41.1643 31.0312 41.1322 31.0312C41.0894 31.0312 41.1215 31.1061 41.1964 31.1917C41.2713 31.2773 41.2927 31.3522 41.2499 31.3522C41.2071 31.3522 41.2285 31.4164 41.2927 31.4913C41.3569 31.5769 41.3783 31.6732 41.3355 31.7053C41.3034 31.7481 41.3248 31.8444 41.389 31.9193C41.4639 32.0049 41.4853 32.1012 41.4425 32.1333C41.4104 32.1761 41.4425 32.2724 41.5174 32.3687C41.5923 32.4543 41.6137 32.5292 41.5816 32.5292C41.5388 32.5292 41.603 32.679 41.7314 32.8502C41.8598 33.0321 41.9989 33.1498 42.0524 33.1177C42.1059 33.0856 42.1809 33.1177 42.213 33.1819C42.2558 33.2461 42.5447 33.2782 42.8978 33.2675C43.2402 33.2568 43.5719 33.2782 43.6468 33.321C43.711 33.3638 43.9464 33.3852 44.1497 33.3638L44.5349 33.3317V34.2948C44.5242 34.9903 44.4921 35.2471 44.3958 35.2257C44.3209 35.2043 44.1925 35.2257 44.0962 35.2685C43.9999 35.3006 43.604 35.322 43.2081 35.3113C42.8229 35.3113 42.4698 35.3434 42.4377 35.4076C42.3949 35.4718 42.2986 35.4932 42.2237 35.4611C42.0952 35.4076 41.5816 35.8463 41.5602 36.0282C41.5602 36.071 41.5174 36.1994 41.4639 36.3064C41.4211 36.4134 41.4104 36.5312 41.4532 36.5633C41.4853 36.5954 41.4639 36.6917 41.3997 36.7666C41.3355 36.8522 41.3034 36.9806 41.3355 37.0662C41.3676 37.1411 41.3355 37.2695 41.2713 37.3337C41.2071 37.3979 41.1964 37.4514 41.2392 37.4514C41.2927 37.4514 41.2713 37.5263 41.1964 37.6119C41.1215 37.6975 41.1001 37.7724 41.1429 37.7724C41.1857 37.7724 41.1643 37.8473 41.0894 37.9329C41.0145 38.0185 40.9931 38.0934 41.0359 38.0934C41.0787 38.0934 41.0573 38.1683 40.9824 38.2539C40.9075 38.3395 40.8754 38.4144 40.9182 38.4144C41.0252 38.4144 40.3404 39.7092 39.8696 40.3833C39.2168 41.3142 39.2489 41.4533 40.2976 42.6304L41.1857 43.6255L40.5009 44.2996L39.8161 44.9845L39.57 44.7705C39.4309 44.6635 38.9921 44.2675 38.5855 43.893C38.1789 43.5292 37.8258 43.251 37.7937 43.2831C37.7616 43.3152 37.676 43.2831 37.6011 43.2189C37.5048 43.144 37.2587 43.2403 36.6809 43.5827C35.7178 44.1712 34.7762 44.6528 34.7762 44.5564C34.7762 44.5136 34.7013 44.5457 34.6157 44.6206C34.5301 44.6956 34.4552 44.717 34.4552 44.6742C34.4552 44.6313 34.3803 44.6528 34.2947 44.7277C34.2091 44.8026 34.1342 44.824 34.1342 44.7812C34.1342 44.7384 34.0593 44.7598 33.9737 44.8347C33.8881 44.9096 33.8131 44.931 33.8131 44.8775C33.8131 44.8347 33.7596 44.8454 33.6954 44.9096C33.6312 44.9738 33.5135 45.0059 33.4386 44.9845C33.3637 44.9524 33.2674 44.9738 33.2353 45.038C33.1925 45.1022 33.0962 45.1236 33.0106 45.0808C32.9143 45.0487 32.7859 45.0808 32.7003 45.145C32.6254 45.2092 32.5291 45.2306 32.497 45.1985C32.4007 45.1022 31.6517 45.68 31.7266 45.7977C31.7587 45.8512 31.7266 45.9261 31.6624 45.9582C31.5982 46.001 31.5661 46.2792 31.5768 46.5895C31.5875 46.8998 31.5661 47.2101 31.5233 47.2743C31.4805 47.3492 31.4591 47.6061 31.4698 47.8415L31.5019 48.2802H30.5495C29.7042 48.2802 29.5865 48.2481 29.6186 48.0983C29.64 47.9913 29.6186 47.8415 29.5865 47.7345C29.5437 47.6382 29.5223 47.2636 29.533 46.8998C29.533 46.5467 29.5009 46.215 29.4474 46.1829C29.3832 46.1508 29.3618 46.0331 29.3939 45.9154C29.426 45.7763 29.3297 45.6265 29.0622 45.4232C28.8482 45.2627 28.6449 45.1557 28.6021 45.1985C28.57 45.2306 28.4737 45.2092 28.3988 45.145C28.3132 45.0808 28.1847 45.0487 28.0884 45.0808C28.0028 45.1236 27.9065 45.1022 27.8637 45.038C27.8316 44.9738 27.7353 44.9524 27.6604 44.9845C27.5855 45.0059 27.4678 44.9738 27.4036 44.9096C27.3394 44.8454 27.2859 44.8347 27.2859 44.8775C27.2859 44.931 27.211 44.9096 27.1254 44.8347C27.0398 44.7598 26.9649 44.7384 26.9649 44.7812C26.9649 44.824 26.89 44.8026 26.8044 44.7277C26.7188 44.6528 26.6439 44.6313 26.6439 44.6742C26.6439 44.717 26.569 44.6956 26.4834 44.6206C26.3978 44.5457 26.3229 44.5136 26.3229 44.5564C26.3229 44.642 25.21 44.0749 24.3326 43.5506C23.9581 43.3152 23.5836 43.1226 23.5087 43.1226C23.4445 43.1226 22.8988 43.5185 22.3102 44.0107C21.711 44.4922 21.176 44.8989 21.1225 44.9096C21.0583 44.9203 20.7266 44.642 20.3842 44.2996L19.7528 43.6683L20.5019 42.8337C21.2616 41.9777 21.6147 41.4961 21.6147 41.3142C21.6147 41.25 21.4007 40.8755 21.1439 40.4796C20.6303 39.6771 20.1916 38.8424 20.2772 38.8424C20.3093 38.8424 20.2558 38.7247 20.1595 38.5749C20.0632 38.4251 20.0204 38.3074 20.0632 38.3074C20.106 38.3074 20.0846 38.2325 20.0097 38.1469C19.9347 38.0613 19.9133 37.9864 19.9454 37.9864C19.9883 37.9864 19.9454 37.8794 19.8598 37.7617C19.7742 37.6333 19.7314 37.4728 19.7528 37.3979C19.7849 37.323 19.7635 37.2267 19.6993 37.1946C19.6351 37.1518 19.6137 37.0555 19.6458 36.9806C19.6779 36.895 19.6458 36.7987 19.5923 36.7559C19.5281 36.7238 19.496 36.6382 19.5388 36.5847C19.5709 36.5312 19.5388 36.4134 19.4746 36.3278C19.3997 36.2422 19.3783 36.1673 19.4104 36.1673C19.4532 36.1673 19.389 36.0175 19.2606 35.8463C19.1322 35.6644 18.9931 35.5467 18.9396 35.5788C18.8861 35.6109 18.8112 35.5788 18.7791 35.5146C18.7363 35.4504 18.4474 35.4183 18.0943 35.429C17.7519 35.4397 17.4202 35.4183 17.3453 35.3755C17.2811 35.3327 17.0456 35.3113 16.8423 35.3327L16.4571 35.3648V34.3483V33.3317L16.8423 33.3638C17.0456 33.3852 17.2811 33.3638 17.3453 33.321C17.4202 33.2782 17.7519 33.2568 18.0943 33.2675C18.4474 33.2782 18.7363 33.2461 18.7791 33.1819C18.8112 33.1177 18.8861 33.0856 18.9396 33.1177C18.9931 33.1498 19.1322 33.0321 19.2606 32.8502C19.389 32.679 19.4532 32.5292 19.4104 32.5292C19.3783 32.5292 19.3997 32.465 19.4639 32.3794C19.5281 32.2938 19.5816 32.1868 19.5709 32.144C19.5602 32.0905 19.5816 31.9621 19.6351 31.8551C19.6779 31.7481 19.6886 31.6304 19.6458 31.5983C19.6137 31.5662 19.6351 31.4699 19.6993 31.3843C19.7635 31.3094 19.7849 31.2452 19.7421 31.2452C19.6993 31.2452 19.7207 31.1703 19.7956 31.0847C19.8705 30.9991 19.8919 30.9242 19.8491 30.9242C19.8063 30.9242 19.8277 30.8492 19.9026 30.7636C19.9776 30.678 19.999 30.6031 19.9562 30.6031C19.9133 30.6031 19.9347 30.5282 20.0097 30.4426C20.0846 30.357 20.1167 30.2821 20.0739 30.2821C19.9776 30.2821 20.6196 29.0409 21.1332 28.2384C21.7645 27.2646 21.7324 27.1469 20.6624 25.9806L19.7635 25.0175L20.3949 24.3862C20.7373 24.0438 21.0476 23.7549 21.0904 23.7549C21.1332 23.7549 21.5826 24.1401 22.1069 24.6109C22.6205 25.071 23.07 25.4348 23.1021 25.4134C23.1235 25.3813 23.2091 25.4134 23.284 25.4777C23.3589 25.5419 23.4873 25.5526 23.5622 25.5098C23.6371 25.4563 23.7227 25.4134 23.7548 25.4134C23.7869 25.4027 24.0758 25.2315 24.3968 25.0175C25.0816 24.5788 25.8949 24.1508 25.8949 24.2364C25.8949 24.2685 26.0126 24.215 26.1624 24.1187C26.3122 24.0224 26.4299 23.9796 26.4299 24.0117C26.4299 24.0545 26.4941 24.0545 26.569 24.001C26.6332 23.9582 26.7295 23.9154 26.783 23.9047C26.8258 23.894 26.8793 23.8726 26.9114 23.8619C26.9435 23.8512 27.0184 23.8191 27.0719 23.8084C27.1361 23.7977 27.211 23.7656 27.2645 23.7549C27.3073 23.7442 27.4143 23.7335 27.5213 23.7442C27.6176 23.7549 27.7246 23.7121 27.7567 23.6586C27.7995 23.5944 27.8958 23.573 27.9707 23.6051C28.0563 23.6372 28.1526 23.6051 28.1954 23.5516C28.2275 23.4874 28.3132 23.4553 28.3667 23.4981C28.4202 23.5302 28.5379 23.4981 28.6235 23.4339C28.7091 23.359 28.784 23.3376 28.784 23.3804C28.784 23.4339 28.8803 23.3804 28.998 23.2734C29.1157 23.1664 29.1799 23.0487 29.1585 22.9952C29.1264 22.9524 29.1585 22.8775 29.2227 22.8454C29.2762 22.8026 29.319 22.5457 29.3083 22.2675C29.2976 21.9893 29.319 21.7004 29.3618 21.6362C29.4046 21.5613 29.4367 21.2724 29.426 20.9942C29.4153 20.716 29.4153 20.4699 29.4153 20.4378C29.4367 20.3201 31.2986 20.4164 31.3093 20.5341ZM36.0174 29.0623C36.8093 29.6829 37.4513 30.2393 37.4513 30.2928C37.4513 30.4533 31.4698 34.8833 31.4056 34.7763C31.3735 34.7228 31.4484 34.466 31.5768 34.2199C31.7052 33.9631 31.8015 33.7491 31.7908 33.7277C31.7801 33.717 31.8978 33.4601 32.0476 33.1712C32.1974 32.8823 32.3151 32.6148 32.3151 32.5827C32.3151 32.5506 32.4328 32.2831 32.5826 31.9942C32.7324 31.7053 32.8501 31.4378 32.8501 31.4057C32.8501 31.3736 32.9678 31.1061 33.1176 30.8171C33.2674 30.5282 33.3851 30.2607 33.3851 30.2286C33.3851 30.1965 33.5028 29.929 33.6526 29.6401C33.8024 29.3512 33.9202 29.0837 33.9202 29.0516C33.9095 28.9446 34.4552 27.928 34.5194 27.928C34.5515 27.928 35.2256 28.4417 36.0174 29.0623ZM31.4591 28.4096C31.5233 28.4524 31.6089 28.4524 31.641 28.4203C31.6731 28.3882 31.7694 28.4096 31.855 28.4845C31.9299 28.5487 32.0262 28.5701 32.069 28.538C32.1011 28.4952 32.1974 28.5166 32.2723 28.5808C32.39 28.6771 32.39 28.752 32.2616 29.0088C32.1653 29.18 32.1011 29.3405 32.1011 29.3726C32.1011 29.4047 31.9834 29.6722 31.8336 29.9611C31.6838 30.25 31.5661 30.5175 31.5661 30.5496C31.5661 30.5817 31.4484 30.8492 31.2986 31.1382C31.1488 31.4271 31.0203 31.7053 31.0203 31.7481C31.0096 31.8016 30.9133 32.0263 30.7849 32.2617C30.6672 32.4971 30.5816 32.7004 30.5923 32.7218C30.603 32.7325 30.4853 32.9893 30.3355 33.2782C30.1857 33.5671 30.068 33.8347 30.068 33.8668C30.068 33.8989 29.9503 34.1664 29.8005 34.4553C29.6507 34.7442 29.533 35.0117 29.533 35.0438C29.533 35.0759 29.4153 35.3434 29.2655 35.6323C29.1157 35.9212 28.998 36.1887 28.998 36.2208C28.998 36.2529 28.8803 36.5205 28.7305 36.8094C28.5807 37.0983 28.4737 37.3551 28.4844 37.3765C28.5058 37.3979 28.4523 37.5049 28.3667 37.6012C28.2382 37.7617 28.2596 37.8259 28.5379 38.179C28.7198 38.4037 28.9659 38.5856 29.1157 38.607C29.3083 38.6177 30.2606 37.9543 32.9036 35.964C34.8404 34.4874 36.4454 33.3103 36.4668 33.3317C36.5417 33.3959 36.5096 35.1508 36.4347 35.3434C36.3919 35.4504 36.3812 35.5681 36.424 35.6002C36.4561 35.6323 36.4347 35.7286 36.3598 35.8142C36.2956 35.8891 36.2742 35.9854 36.3063 36.0282C36.3491 36.0603 36.317 36.1887 36.2528 36.3171C36.1779 36.4349 36.1137 36.6061 36.103 36.681C35.9639 37.5263 33.674 39.8162 32.8287 39.9553C32.7538 39.966 32.5826 40.0302 32.4649 40.1051C32.3365 40.1693 32.2081 40.2014 32.176 40.1586C32.1332 40.1265 32.0369 40.1479 31.962 40.2121C31.8764 40.287 31.7801 40.3084 31.748 40.2763C31.7159 40.2335 31.5982 40.2442 31.4912 40.287C31.2451 40.3833 29.747 40.3833 29.5009 40.287C29.3939 40.2442 29.2762 40.2335 29.2441 40.2763C29.212 40.3084 29.1157 40.287 29.0301 40.2121C28.9552 40.1479 28.8589 40.1265 28.8161 40.1586C28.784 40.2014 28.6556 40.1693 28.5272 40.1051C28.4095 40.0302 28.2382 39.966 28.1633 39.9553C27.8423 39.9018 26.8044 39.1741 26.2373 38.607C25.6702 38.0399 24.9425 37.002 24.889 36.681C24.8783 36.6061 24.8141 36.4349 24.7392 36.3171C24.675 36.1887 24.6429 36.0603 24.6857 36.0282C24.7178 35.9854 24.6964 35.8891 24.6322 35.8142C24.5573 35.7286 24.5359 35.6323 24.568 35.6002C24.6108 35.5681 24.6001 35.4504 24.5573 35.3434C24.461 35.0973 24.461 33.5992 24.5573 33.3531C24.6001 33.2461 24.6108 33.1284 24.568 33.0963C24.5359 33.0642 24.5573 32.9679 24.6322 32.8823C24.6964 32.8074 24.7178 32.7111 24.6857 32.6683C24.6429 32.6362 24.675 32.5078 24.7392 32.3794C24.8141 32.2617 24.8783 32.0905 24.889 32.0156C25.0281 31.1703 27.318 28.8804 28.1633 28.7413C28.2382 28.7306 28.3988 28.6664 28.5165 28.6022C28.6342 28.5487 28.784 28.5166 28.8589 28.538C28.9231 28.5594 29.0087 28.538 29.0408 28.4738C29.0729 28.4203 29.2013 28.3989 29.3083 28.431C29.4153 28.4631 29.533 28.4417 29.5651 28.3882C29.6293 28.2919 31.2879 28.3026 31.4591 28.4096Z" fill="#436AB1"/>
<path d="M12.3588 19.999C10.422 21.572 8.76346 22.8668 8.68855 22.8668C8.61365 22.8668 8.14284 22.214 7.63992 21.4115C7.1263 20.609 6.61268 19.8706 6.48427 19.7743C6.15256 19.4961 5.83155 19.5389 5.46774 19.9134C5.13603 20.2345 5.06112 20.4378 5.22163 20.5876C5.26443 20.6304 5.29653 20.7053 5.29653 20.7374C5.30723 20.8658 7.71482 24.4397 8.00373 24.7393C8.27124 25.0282 8.54945 25.1138 8.70996 24.9533C8.75276 24.9105 8.82766 24.8784 8.87046 24.8784C8.95606 24.8784 15.0553 19.9562 16.4035 18.8006C16.8637 18.4047 17.0135 18.2121 17.0135 17.9874C17.0135 17.6236 16.5105 17.1206 16.1467 17.1206C15.9755 17.1206 14.8092 18.0088 12.3588 19.999Z" fill="#436AB1"/>
<path d="M3.70228 27.8852C3.54178 28.0564 3.42407 28.2919 3.42407 28.4631C3.42407 28.6343 3.54178 28.8697 3.70228 29.0409L3.99119 29.3191H8.71006H13.4396L13.7285 29.0195C14.1031 28.6236 14.0924 28.3454 13.6857 27.9387L13.354 27.607H8.67796H3.99119L3.70228 27.8852Z" fill="#436AB1"/>
<path d="M3.70237 33.1284C3.33856 33.5029 3.33856 33.9095 3.72377 34.2733L4.02338 34.5623H7.98253C11.7063 34.5623 11.9417 34.5409 12.1985 34.3482C12.3483 34.2412 12.466 34.1128 12.4767 34.0593C12.4767 34.0165 12.5195 33.8881 12.5623 33.7811C12.6265 33.6527 12.5623 33.4815 12.3697 33.2247L12.0808 32.8502H8.03603H3.99128L3.70237 33.1284Z" fill="#436AB1"/>
<path d="M4.2266 38.0934C4.1838 38.1576 4.1089 38.179 4.0554 38.1362C3.85209 38.0078 3.42407 38.5321 3.42407 38.9066C3.42407 39.1849 3.50968 39.324 3.77719 39.5273L4.141 39.8055H8.75287H13.354L13.6857 39.4738C13.8677 39.2919 14.0175 39.0671 14.0175 38.9815C14.0175 38.714 13.4824 38.072 13.3112 38.1362C13.2363 38.1683 13.14 38.1469 13.1079 38.0934C13.0116 37.9436 4.3122 37.9543 4.2266 38.0934Z" fill="#436AB1"/>
<path d="M4.0875 43.358C4.01259 43.4329 3.95909 43.4436 3.95909 43.3901C3.95909 43.3366 3.84139 43.4115 3.69158 43.5506C3.52038 43.7111 3.42407 43.9145 3.42407 44.1392C3.42407 44.3639 3.52038 44.5672 3.69158 44.7277C3.84139 44.8668 3.95909 44.9417 3.95909 44.8882C3.95909 44.8347 4.01259 44.8454 4.0875 44.9203C4.2587 45.0915 13.2149 45.1022 13.3219 44.9417C13.3647 44.8775 13.4289 44.8561 13.4824 44.8882C13.5894 44.9524 14.0175 44.3853 14.0175 44.182C14.0175 43.9894 13.4824 43.3259 13.3754 43.3901C13.3219 43.4222 13.2577 43.4008 13.2149 43.3366C13.1079 43.1761 4.2587 43.1868 4.0875 43.358Z" fill="#436AB1"/>
<path d="M4.0875 48.6012C4.01259 48.6761 3.95909 48.6868 3.95909 48.6333C3.95909 48.5798 3.84139 48.6547 3.69158 48.7938C3.52038 48.9543 3.42407 49.1576 3.42407 49.3823C3.42407 49.607 3.52038 49.8103 3.69158 49.9708C3.84139 50.1099 3.95909 50.1848 3.95909 50.1313C3.95909 50.0778 4.01259 50.0885 4.0875 50.1634C4.2587 50.3347 13.1079 50.3454 13.2149 50.1848C13.2577 50.1206 13.3219 50.0992 13.3647 50.1313C13.5145 50.2169 14.0175 49.6391 14.0175 49.3716C14.0175 49.2218 13.8677 49.0078 13.6215 48.8045L13.2149 48.4728H8.72076C5.36084 48.4728 4.1838 48.5049 4.0875 48.6012Z" fill="#436AB1"/>
</svg>
