<svg width="54" height="57" viewBox="0 0 54 57" fill="none" xmlns="http://www.w3.org/2000/svg">
<path d="M33.9392 40.47C33.7499 41.9266 32.9298 42.94 31.9205 43.8266C31.4158 44.27 31.0373 44.7766 30.785 45.3466C30.6588 45.5366 30.5957 45.7266 30.4695 45.98C29.8387 48.07 28.5139 49.6533 26.9368 51.11C24.9812 52.82 23.1518 54.5933 21.2593 56.3666C20.5653 57 19.6822 57.1267 18.799 56.8733C16.7172 56.3033 15.077 55.0366 13.6892 53.4533C12.8691 52.5033 12.1121 51.4266 11.7336 50.16C11.3551 49.02 11.4812 48.0066 12.4275 47.0567C14.6985 44.65 16.9065 42.2433 19.1775 39.8366C19.4298 39.5833 19.6822 39.3933 19.9976 39.2666C20.8177 38.8866 21.7009 38.5066 22.521 38.1266C23.4041 37.7466 24.1611 37.1766 24.792 36.48C25.4859 35.6566 26.3691 35.0233 27.5046 34.77C27.82 34.7067 28.1354 34.7067 28.5139 34.6433C28.3878 34.2633 28.1985 34.39 27.9462 34.4533C24.035 35.2767 20.7546 34.1367 18.2312 31.0967C16.528 29.07 16.1495 26.5367 16.4018 23.94C16.4018 23.75 16.4649 23.6233 16.4649 23.4333C16.528 22.9267 16.7172 22.5467 17.2219 22.2933C17.7266 22.1033 18.1681 22.2933 18.4836 22.6733C19.6191 23.8133 20.8177 24.9533 21.9532 26.1567C22.2055 26.41 22.4579 26.5367 22.7733 26.4733C23.9088 26.3467 25.1074 26.2833 26.2429 26.1567C26.4322 26.1567 26.4953 26.0933 26.5583 25.9033C26.6214 24.7 26.7476 23.4967 26.8738 22.2933C26.8738 21.9767 26.7476 21.85 26.5583 21.66C25.4228 20.52 24.2873 19.38 23.1518 18.24C22.7733 17.86 22.4579 17.48 22.7102 16.8467C22.8995 16.2133 23.4041 16.0867 24.035 16.0233C25.8013 15.8333 27.5677 15.96 29.2079 16.5933C32.4252 17.86 34.1915 20.3933 34.8854 23.6867C35.1378 25.08 35.0747 26.4733 34.6962 27.8033C34.57 28.12 34.7593 28.31 34.9485 28.5C35.2639 28.7533 35.327 28.4367 35.4532 28.31C37.535 26.22 39.6167 24.13 41.7616 22.04C41.9509 21.85 42.077 21.7233 41.8247 21.4067C41.3831 20.9 41.5093 20.2667 42.0139 19.8867C43.7172 18.62 45.4205 17.3533 47.1868 16.15C47.6915 15.8333 48.1962 15.8333 48.5747 16.2767C49.8995 17.6067 51.2242 18.8733 52.549 20.2033C52.9906 20.6467 52.9906 21.2167 52.6121 21.7233C51.3504 23.37 50.0887 25.0167 48.827 26.6633C48.3854 27.17 47.8177 27.2967 47.2499 26.8533C46.9976 26.6633 46.8714 26.6633 46.6822 26.9167C44.6004 29.0067 42.5817 31.0967 40.4999 33.1233C40.1845 33.44 40.3738 33.5667 40.563 33.7567C43.6541 36.6066 46.7453 39.3933 49.8364 42.2433C50.5934 42.94 51.4135 43.6366 52.1074 44.3966C53.8107 46.0433 54.5677 48.07 53.9368 50.4133C53.1798 53.39 49.9625 54.8466 46.9976 53.7066C45.8621 53.2633 44.9789 52.5666 44.1588 51.68C41.0677 48.26 37.9135 44.84 34.7593 41.42C34.3808 40.9767 34.1915 40.7866 33.9392 40.47ZM18.6728 26.03C18.6097 27.4233 19.4298 29.26 20.5023 30.21C22.7102 32.3 25.2336 32.9967 28.1354 31.9833C28.7032 31.7933 29.1448 31.92 29.5233 32.3C30.2172 33.06 30.9742 33.8833 31.6681 34.6433C36.3995 39.7733 41.1308 44.9666 45.8621 50.0966C46.4298 50.73 47.1238 51.1733 47.9438 51.4266C50.278 52.1233 52.2336 50.35 51.6658 47.9433C51.4135 46.74 50.5934 45.98 49.7733 45.22C44.0326 39.9633 38.3551 34.7066 32.6144 29.45C31.9836 28.88 31.9205 28.6267 32.1728 27.8033C32.6775 26.41 32.7406 24.9533 32.4252 23.4967C31.7312 20.52 29.271 18.3667 26.3691 18.24C27.1261 19 27.8831 19.76 28.6401 20.52C28.9555 20.8367 29.1448 21.1533 29.0817 21.5333C28.9555 23.37 28.7663 25.2067 28.6401 27.0433C28.577 27.8033 28.2616 28.12 27.5046 28.1833C25.8644 28.3733 24.1611 28.4367 22.521 28.6267C21.7639 28.69 21.1962 28.5633 20.6915 27.9933C20.0607 27.4233 19.3667 26.79 18.6728 26.03ZM13.8153 49.0833C13.8784 49.2733 13.9415 49.4633 14.0046 49.6533C14.2569 50.2866 14.6354 50.92 15.077 51.49C16.1495 52.9466 17.4742 54.0233 19.2406 54.6567C19.556 54.7833 19.7453 54.72 19.9976 54.4666C21.7639 52.82 23.5303 51.11 25.3597 49.5266C26.7476 48.26 27.9462 46.8666 28.4509 45.03C28.5139 44.84 28.6401 44.5866 28.7032 44.3966C29.1448 43.51 29.6495 42.6866 30.4695 42.0533C30.9111 41.7366 31.2266 41.2933 31.4789 40.85C31.6051 40.66 31.6681 40.4066 31.542 40.2166C31.0373 39.33 31.0373 39.2033 31.7312 38.4433C31.8574 38.2533 31.9205 38.19 31.7312 38C31.3527 37.62 30.9742 37.24 30.6588 36.7966C30.4065 36.48 30.2172 36.48 29.9649 36.7966C29.4602 37.3033 28.9555 37.4933 28.5139 37.1133C28.0724 36.7333 27.6938 36.9233 27.3153 37.1766C26.9999 37.43 26.6214 37.6833 26.3691 38C25.7382 38.8233 24.9181 39.33 24.035 39.8366C23.0887 40.3433 22.1424 40.7866 21.1962 41.1666C21.0069 41.23 20.7546 41.3566 20.6284 41.5466C18.4205 43.89 16.2125 46.2966 14.0046 48.64C13.9415 48.7667 13.8153 48.8933 13.8153 49.0833ZM50.0887 20.9633C50.0256 20.9 50.0256 20.8367 49.9625 20.7733C49.2055 20.0133 48.5116 19.3167 47.7546 18.5567C47.6284 18.43 47.5023 18.43 47.3761 18.5567C46.4298 19.2533 45.5466 19.8867 44.6004 20.5833C44.4742 20.6467 44.3481 20.71 44.4742 20.9C44.9158 21.5967 44.6004 22.1667 44.0957 22.6733C41.7616 25.0167 39.3644 27.4233 37.0303 29.7667C36.778 30.02 36.7149 30.1467 37.0303 30.4C37.4088 30.6533 37.7242 30.97 38.0396 31.35C38.3551 31.6667 38.4812 31.6667 38.7967 31.35C41.1308 28.9433 43.4649 26.6 45.8621 24.2567C46.4298 23.6867 46.8083 23.6233 47.4392 24.0033C47.6915 24.13 47.7546 24.0033 47.8808 23.8767C48.5747 22.99 49.2055 22.1667 49.8995 21.28C49.9625 21.1533 50.0256 21.09 50.0887 20.9633Z" fill="#436AB1"/>
<path d="M2.23927e-05 28.69C0.0631065 27.2333 0.630863 26.03 1.95563 25.3333C2.83881 24.89 3.6589 24.32 4.54208 23.8133C4.79441 23.6867 4.92058 23.4967 4.92058 23.18V23.1167C5.10984 22.1667 4.79441 21.5333 3.84815 21.0267C3.09114 20.6467 2.39722 20.0767 1.64021 19.6333C0.189275 18.6833 -0.441566 16.7833 0.189275 15.2C0.630864 14.1233 1.07245 13.0467 1.51404 11.97C2.27105 10.3233 4.41591 9.43667 5.80376 9.94334C6.81311 10.26 7.82245 10.5133 8.89488 10.7667C9.14722 10.83 9.33647 10.7667 9.52572 10.64C10.4089 9.94334 10.9767 9.24667 10.4089 8.04334C10.0935 7.41 10.0304 6.71334 9.84114 6.01667C9.39956 4.30667 10.2827 2.34334 11.8598 1.64667C12.9323 1.20334 13.9416 0.760005 15.014 0.316672C16.6542 -0.316662 18.6729 0.380005 19.5561 1.9C20.0608 2.78667 20.5654 3.67334 21.0701 4.56C21.2594 4.87667 21.3855 5.00334 21.764 5.00334C23.3411 5.06667 23.3411 5.06667 24.1612 3.73667C24.5397 3.10334 24.8552 2.53334 25.2337 1.9C26.1168 0.443338 28.1355 -0.316662 29.7126 0.316672C30.9112 0.633338 31.9837 1.07667 33.0561 1.58334C34.6332 2.28 35.5164 4.18 35.0748 5.89C34.8225 6.90334 34.5701 7.91667 34.2547 8.99334C34.1916 9.24667 34.1916 9.5 34.3809 9.69C34.3809 9.69 34.3809 9.69 34.4439 9.75334C35.4533 10.9567 35.4533 10.9567 36.9673 10.5767C37.6612 10.3867 38.3552 10.26 39.0491 10.0067C40.5631 9.5 42.6449 10.5133 43.3388 12.0333C43.6542 12.73 43.9696 13.4267 44.222 14.1233C44.4743 14.82 44.222 15.39 43.5911 15.6433C43.0234 15.8967 42.4556 15.6433 42.1402 14.9467C41.8879 14.3767 41.6355 13.7433 41.3832 13.11C41.0678 12.2867 40.3739 11.97 39.4907 12.16C38.3552 12.4767 37.2197 12.73 36.0841 13.0467C35.5795 13.1733 35.201 13.1733 34.7594 12.92C33.6239 12.2233 32.7407 11.3367 32.1098 10.26C31.8575 9.81667 31.7944 9.43667 31.9837 8.93001C32.2991 7.79 32.6145 6.58667 32.8668 5.44667C33.0561 4.68667 32.7407 3.99001 32.0468 3.67334C31.1005 3.23001 30.0911 2.85 29.1449 2.47001C28.451 2.15334 27.694 2.47 27.2524 3.16667C26.6846 4.11667 26.1168 5.06667 25.6122 6.08C25.2337 6.77667 24.729 7.15667 23.972 7.28334C22.8996 7.47334 21.8902 7.47334 20.8178 7.22C20.25 7.09334 19.8715 6.84 19.5561 6.33334C18.9253 5.06667 18.3575 4.05334 17.7267 3.04C17.3482 2.40667 16.5911 2.09 15.8972 2.34334C14.8879 2.72334 13.8154 3.16667 12.8061 3.61C12.1753 3.86334 11.8598 4.68667 12.0491 5.38334C12.3645 6.58667 12.6799 7.72667 12.9953 8.93001C13.1215 9.37334 13.0584 9.75334 12.8692 10.1333C12.1753 11.2733 11.2921 12.2233 10.1566 12.92C9.77806 13.1733 9.33647 13.1733 8.89488 13.0467C7.75937 12.73 6.56077 12.4133 5.42526 12.16C4.66825 11.97 3.97432 12.2867 3.6589 12.92C3.21731 13.9333 2.77572 14.9467 2.39722 16.0233C2.14488 16.6567 2.4603 17.4167 2.96498 17.7333C3.97432 18.3667 4.98367 19.1267 5.99301 19.6967C6.75002 20.14 7.06544 20.71 7.19161 21.5333C7.31778 22.42 7.31778 23.37 7.12853 24.2567C7.00236 24.8267 6.75002 25.27 6.18227 25.5233C5.17292 26.0933 4.10049 26.7267 3.09114 27.2967C2.39722 27.6767 2.14488 28.5 2.39722 29.1967C2.77572 30.1467 3.15423 31.0967 3.59582 32.0467C3.91124 32.8067 4.60516 33.1867 5.42526 32.9333C6.56077 32.6167 7.75937 32.3633 8.89488 32.0467C9.33647 31.92 9.77806 31.9833 10.1566 32.1733C11.2921 32.87 12.1753 33.7567 12.8692 34.8967C13.1215 35.2767 13.1215 35.72 12.9953 36.1633C12.6799 37.3033 12.3645 38.4433 12.1122 39.5833C11.9229 40.3433 12.1122 40.9767 12.743 41.3567C13.4369 41.8 13.6262 42.4333 13.2477 43.0033C12.8692 43.5733 12.1753 43.6367 11.4813 43.1933C10.2827 42.4333 9.33647 40.4067 9.84114 39.0133C10.2196 38.0633 10.4089 36.9867 10.6612 35.9733C10.7243 35.8467 10.7874 35.6567 10.6612 35.53C10.2827 35.0867 9.84114 34.6433 9.39956 34.2633C9.27339 34.1367 9.08414 34.2 8.95797 34.2633C7.94862 34.5167 6.87619 34.7067 5.86685 35.0867C4.41591 35.5933 2.14488 34.58 1.51404 32.9333C1.13554 31.92 0.693948 30.9067 0.252359 29.8933C0.0631065 29.5767 2.23927e-05 29.1333 2.23927e-05 28.69Z" fill="#436AB1"/>
</svg>
