<svg width="58" height="57" viewBox="0 0 58 57" fill="none" xmlns="http://www.w3.org/2000/svg">
<path d="M35.409 0C35.7825 0.26724 36.0203 0.623559 36.2127 1.03555C37.6618 4.10881 39.1448 7.1598 40.5939 10.2442C40.7863 10.6562 40.9561 10.7007 41.3297 10.5003C41.7599 10.2665 42.2127 10.0772 42.6542 9.88787C43.4354 9.55382 43.8882 9.72084 44.2618 10.4892C44.692 11.3577 45.0995 12.2262 45.5071 13.1059C46.3108 14.7761 47.1146 16.4575 47.9071 18.1278C47.975 18.2614 48.0316 18.395 48.0882 18.5286C48.3146 19.1299 48.1109 19.6533 47.5788 19.876C47.0354 20.1098 46.5033 19.9094 46.2203 19.3303C45.5071 17.8828 44.8165 16.4241 44.1146 14.9654C43.7184 14.1414 43.3108 13.3286 42.9486 12.4935C42.7901 12.126 42.6203 12.1037 42.2807 12.2708C38.2844 14.1303 34.2769 15.9787 30.2807 17.8271C29.975 17.9719 29.6693 18.1166 29.3524 18.2168C28.8429 18.3727 28.3561 18.15 28.1297 17.6824C27.9146 17.2481 28.0505 16.7693 28.4807 16.4575C28.6618 16.335 28.8769 16.2348 29.0807 16.1457C32.2278 14.687 35.3863 13.2284 38.5335 11.7808C38.8391 11.6361 38.9637 11.547 38.7939 11.1795C37.4354 8.39578 36.0995 5.58976 34.7863 2.78375C34.6278 2.43856 34.5033 2.38289 34.1297 2.54991C28.4693 5.1889 22.7976 7.80563 17.1146 10.4112C16.6844 10.6116 16.5712 10.7453 16.7976 11.2129C18.1335 13.9521 19.4467 16.7025 20.7373 19.4528C20.9071 19.8091 21.0656 19.8537 21.4052 19.6867C22.6278 19.1076 23.8505 18.5398 25.0844 17.983C25.7863 17.6601 26.3863 17.7937 26.658 18.3393C26.941 18.9072 26.692 19.4751 25.9675 19.8091C24.7222 20.3882 23.4882 20.9672 22.2316 21.5128C21.892 21.6687 21.858 21.8023 22.0165 22.1252C23.3637 24.8978 24.6882 27.6816 26.0014 30.4653C26.1825 30.8439 26.3184 30.8996 26.7033 30.7214C34.3675 27.1694 42.0316 23.6284 49.6958 20.0875C49.8656 20.0096 50.0354 19.9205 50.2052 19.8537C50.8731 19.5976 51.3939 19.7757 51.6995 20.4216C53.4203 24.007 55.1297 27.5925 56.8278 31.178C57.1788 31.924 57.009 32.4028 56.2392 32.7591C54.3939 33.6277 52.5373 34.4851 50.6693 35.3424C49.9788 35.6654 49.3788 35.4983 49.1184 34.9416C48.8467 34.3737 49.0844 33.8504 49.7976 33.5163C51.2354 32.8371 52.6844 32.1578 54.1448 31.512C54.541 31.3339 54.575 31.178 54.4052 30.8105C53.0693 28.049 51.7561 25.2876 50.4429 22.5149C50.2844 22.1809 50.1486 22.0918 49.775 22.2588C42.3825 25.6884 35.0014 29.0957 27.5976 32.503C27.2014 32.6812 27.1335 32.8371 27.3259 33.2268C27.9825 34.5407 28.5939 35.8658 29.2278 37.1909C29.3976 37.5583 29.5108 37.9258 29.2958 38.3044C29.092 38.6495 28.775 38.8388 28.3675 38.8277C27.892 38.8166 27.609 38.5382 27.4165 38.1485C26.7712 36.8123 26.1373 35.4649 25.5033 34.1287C21.8127 26.3899 18.1108 18.6511 14.4203 10.9123C13.9675 9.97695 14.1373 9.54268 15.0882 9.09728C21.575 6.12424 28.0618 3.1178 34.5486 0.122485C34.6165 0.0890799 34.6731 0.04454 34.7297 0C34.9561 0 35.1825 0 35.409 0Z" fill="#436AB1"/>
<path d="M4.16371 2.18248C5.06937 2.18248 5.97503 2.22702 6.88069 2.17135C7.67314 2.12681 8.12597 2.42745 8.46559 3.12896C11.3977 9.32001 14.3637 15.4999 17.3071 21.6798C20.2052 27.7484 23.1033 33.8058 25.9901 39.8744C26.1939 40.3087 26.3637 40.4534 26.9071 40.3198C30.3373 39.4513 33.9486 40.7763 35.9863 43.6046C36.2354 43.9387 36.4052 44.0055 36.7901 43.8273C42.3373 41.244 47.8958 38.683 53.443 36.1219C53.6128 36.044 53.7826 35.9549 53.9637 35.8992C54.5184 35.7099 55.0845 35.9438 55.2882 36.4226C55.492 36.9014 55.3222 37.4358 54.8128 37.7031C54.2128 38.0149 53.6014 38.2932 52.9788 38.5605C52.6392 38.7052 52.5599 38.85 52.7411 39.184C53.0241 39.6851 53.2618 40.2085 53.4996 40.7318C53.7713 41.3442 53.5901 41.9232 53.0694 42.1682C52.5033 42.4355 51.9599 42.2239 51.6316 41.5781C51.3713 41.0659 51.1109 40.5536 50.8958 40.0192C50.7486 39.6517 50.5788 39.674 50.2731 39.8187C46.5147 41.5669 42.7448 43.304 38.9863 45.041C38.443 45.2971 37.7524 45.4196 37.3901 45.8316C36.9826 46.2882 37.5146 46.9229 37.5713 47.4907C38.1939 53.125 33.4052 57.7015 27.7222 56.9109C23.9297 56.3876 20.8618 53.2698 20.4656 49.5173C20.126 46.2325 21.3599 43.6158 24.0316 41.656C24.3599 41.4222 24.3939 41.2551 24.2241 40.91C19.5599 31.1669 14.9071 21.4126 10.243 11.6584C9.13352 9.34228 8.02409 7.03734 6.93729 4.72126C6.76748 4.34267 6.56371 4.20905 6.13352 4.22019C4.51465 4.24246 2.88446 4.24246 1.2656 4.23132C0.314652 4.22019 -0.206103 3.59663 0.076916 2.86172C0.258048 2.37178 0.654275 2.21589 1.15239 2.21589C2.15993 2.19362 3.15616 2.19362 4.16371 2.18248C4.16371 2.19362 4.16371 2.18248 4.16371 2.18248ZM35.5448 48.5152C35.5335 44.9186 32.6014 42.0791 28.8882 42.0903C25.3675 42.1014 22.4128 45.0633 22.4354 48.5597C22.4467 52.1118 25.4354 55.0069 29.058 54.9957C32.6354 54.9846 35.5448 52.0784 35.5448 48.5152Z" fill="#436AB1"/>
<path d="M36.1789 41.8787C35.8393 41.8676 35.5223 41.656 35.3638 41.2551C35.194 40.832 35.2732 40.4534 35.6242 40.1416C35.76 40.0192 35.9411 39.9301 36.0996 39.8521C39.4166 38.3155 42.7336 36.7789 46.0393 35.2422C46.3676 35.0864 46.7072 34.975 47.0695 35.1086C47.4544 35.2534 47.6808 35.5429 47.7261 35.9438C47.7827 36.378 47.5902 36.7121 47.2053 36.9125C46.6619 37.202 46.0959 37.4581 45.5298 37.7142C42.711 39.017 39.8808 40.3198 37.0619 41.6226C36.8242 41.7562 36.5751 41.8787 36.1789 41.8787Z" fill="#436AB1"/>
<path d="M24.7449 48.5263C24.8128 46.8003 25.6052 45.5087 27.1901 44.7738C28.7298 44.05 30.2241 44.2504 31.6052 45.2526C32.1826 45.6646 32.3184 46.2659 31.9901 46.7447C31.6618 47.2346 31.0392 47.3348 30.4618 46.9117C29.2505 46.0209 27.8015 46.444 27.2015 47.3014C26.4996 48.3147 26.7599 49.7066 27.8128 50.3747C28.8543 51.0428 30.2694 50.7087 30.9033 49.6398C31.0052 49.4616 31.0845 49.2723 31.1977 49.1053C31.5033 48.6599 32.0241 48.5263 32.4883 48.7378C32.9637 48.9605 33.1675 49.495 32.9864 50.0183C32.443 51.5884 30.7562 52.7353 28.9675 52.7464C27.2807 52.7576 25.6392 51.6329 25.0618 50.1186C24.8581 49.5841 24.7335 49.0719 24.7449 48.5263Z" fill="#436AB1"/>
</svg>
